<svg version="1.1" xmlns="http://www.w3.org/2000/svg"
     x="20px" y="50px" viewBox="20 50 300.492 240.492"
     style="overflow: hidden; position: relative; top: -0.3125px; enable-background:new 40 50 300.492 240.492;">

    <desc style="-webkit-tap-highlight-color: rgba(0, 0, 0, 0);">Created by Leonardo Almeida </desc>
    <rect x="-20" y="55" width="320.492" height="185.492" r="0" rx="50" ry="50" fill="#5d0d0a" stroke="none" opacity="0.5"></rect>
    <g>
        <g>
            <g>
                <path style="fill:#0E1A35;" d="M287.166,100.421c-9.502-13.217-24.046-23.034-39.868-26.945
                    c-5.309-1.365-10.845-2.061-16.453-2.061c-11.531,0-22.257,3.035-30.981,8.746c-14.076,8.86-23.709,23.91-25.759,40.157
                    c-2.698,16.644,4.357,34.315,17.519,43.959c7.555,5.716,17.47,8.991,27.201,8.991c7.332,0,14.109-1.811,19.575-5.216
                    c14.936-8.991,21.495-28.577,14.626-43.665c-3.525-7.669-10.427-13.647-18.455-15.975c-2.361-0.696-4.754-1.082-7.131-1.164
                    l-0.288,5.434c1.974,0.141,3.916,0.544,5.782,1.202c6.288,2.143,11.536,7.093,14.044,13.288c1.256,2.975,1.893,6.211,1.822,9.355
                    c-0.071,3.421-0.658,6.565-1.855,9.861c-2.366,6.222-6.967,11.667-12.678,14.968c-10.269,6.233-26.624,4.329-37.171-4.172
                    c-10.405-8.278-15.529-21.87-13.364-35.528c1.8-13.413,9.85-25.71,21.56-32.912c5.553-3.514,12.069-5.803,18.868-6.636
                    c2.823-0.359,6.619-0.413,10.285-0.131c3.497,0.31,7.033,0.903,10.231,1.713c13.358,3.437,25.623,11.863,33.668,23.154
                    c8.365,11.324,12.325,24.96,11.438,39.477c-0.587,14.098-5.423,28.305-13.619,40.021c-8.159,11.759-19.907,21.354-33.108,27.027
                    c-6.059,2.654-13.07,4.574-20.832,5.695c-4.803,0.68-9.959,0.8-16.203,0.892l-176.09,2.339l-29.817,1.164l0.109,5.439
                    l199.015,0.131c2.295,0,4.596,0,6.88,0.022l4.253,0.027c3.835,0,8.376-0.071,12.988-0.593c8.36-1.033,16.263-3.111,23.464-6.168
                    c14.925-6.206,28.283-16.905,37.606-30.127c9.426-13.206,15.072-29.36,15.893-45.438
                    C301.476,130.293,296.679,113.399,287.166,100.421z"/>
            </g>
            <g>
                <path style="fill:#0E1A35;" d="M106.617,209.839c0.664-0.027,1.463-0.038,2.23-0.038l5.445,0.065
                    c1.528,0.027,2.959,0.049,4.395,0.049c2.801,0,6.511-0.076,10.438-0.647c7.626-1.246,14.849-4.471,20.864-9.312
                    c12.374-9.752,18.874-25.999,16.562-41.391c-2.371-15.648-15.953-28.697-31.547-30.35c-8.539-1.05-16.421,0.979-22.404,5.619
                    c-6.451,4.824-10.688,12.091-11.612,19.842c-1.229,8.077,1.806,16.589,7.664,21.637c5.803,5.287,15.431,7.43,22.387,5.037
                    c5.102-1.702,9.42-5.798,11.563-10.971l-4.928-2.284c-1.817,3.519-5.096,6.124-8.762,6.957c-1.218,0.277-2.317,0.408-3.367,0.408
                    c-4.329,0-8.762-1.866-11.591-4.89c-3.835-4.003-5.249-9.11-4.096-14.762c1.044-5.08,4.308-10.106,8.496-13.124
                    c4.449-3.176,9.284-4.286,15.349-3.405c11.123,1.441,20.603,10.943,22.077,22.229c1.996,11.335-2.877,24.013-12.173,31.585
                    c-4.585,3.867-10.193,6.494-16.236,7.604c-2.469,0.479-4.922,0.571-7.647,0.642l-104.506,2.752
                    C10.264,203.524,5.134,203.9,0,204.275l0.19,5.434L106.617,209.839z"/>
            </g>
        </g>
    </g>
    <text x="100" y="200" text-anchor="middle" font="10px &quot;Arial&quot;" stroke="#c2eef3" fill="#ee8509"
          style="-webkit-tap-highlight-color: rgba(0, 0, 0, 0); text-anchor: middle; font-style: normal; font-variant: normal; font-weight: normal; font-stretch: normal; font-size: 67px; line-height: normal; font-family: Garamond; opacity: 0.6;"
          opacity="0.6" font-size="67px" font-family="Garamond">
        <tspan dy="20" style="-webkit-tap-highlight-color: rgba(0, 0, 0, 0);">Sensors</tspan>
    </text>
    <text x="60" y="178" text-anchor="middle" font="10px &quot;Arial&quot;" stroke="#c2eef3" fill="#ee8509"
          style="-webkit-tap-highlight-color: rgba(0, 0, 0, 0); text-anchor: middle; font-style: normal; font-variant: normal; font-weight: 700; font-stretch: normal; font-size: 44px; line-height: normal; font-family: Garamond; opacity: 0.6;"
          opacity="0.6" font-size="44px" font-family="Garamond">
        <tspan dy="13" style="-webkit-tap-highlight-color: rgba(0, 0, 0, 0);">Smart</tspan>
    </text>
    <svg xmlns="http://www.w3.org/2000/svg" xmlns:xlink="http://www.w3.org/1999/xlink" version="1.1"
         x="20px" y="60px" width="100px" height="100px" viewBox="0 0 356.601 356.601"
         style="enable-background:new 0 0 356.601 356.601;" xml:space="preserve">
        <g>
            <g>
                <g>
                    <path d="M77.422,132.22V0H31.807v356.601h45.615V216.629c21.41-2.251,37.944-20.488,37.944-42.201     C115.367,152.696,98.833,134.489,77.422,132.22z" fill="#5d0d0a"/>
                </g>
                <g>
                    <g>
                        <path d="M312.574,178.307c0-12.28,3.338-24.337,9.638-34.894l2.582-4.312l-4.708-1.748c-2.474-0.922-4.942-2.06-7.35-3.387      l-3.562-1.913l-2.029,3.479c-7.614,13.061-11.644,27.851-11.644,42.767c0,15.751,4.396,31.237,12.736,44.802l3.081,4.966      l3.711-4.497c0.732-0.883,1.44-1.766,2.149-2.667c0.715-0.906,1.441-1.801,2.138-2.647c0.288-0.354,0.589-0.654,0.906-0.973      l2.631-2.799l-1.508-2.672C315.612,201.605,312.574,190.016,312.574,178.307z" fill="#5d0d0a"/>
                    </g>
                    <g>
                        <path d="M262.452,178.307c0-23.692,7.205-46.682,20.849-66.512l1.753-2.546l-1.909-2.399c-1.861-2.366-3.693-4.783-5.5-7.254      l-3.423-4.657l-3.351,4.687c-16.688,23.298-25.497,50.5-25.497,78.687c0,31.501,10.713,61.195,30.949,85.856l3.05,3.741      l3.261-3.53c0.631-0.686,1.268-1.34,2.234-2.307c0.75-0.756,1.513-1.531,2.443-2.611l3.327-4.475l-2.018-2.485      C271.5,231.137,262.452,205.49,262.452,178.307z" fill="#5d0d0a"/>
                    </g>
                    <g>
                        <path d="M207.988,178.307c0-41.61,15.15-81.896,42.634-113.422l2.126-2.417l-1.789-2.657c-1.729-2.582-3.465-5.08-5.2-7.503      l-3.039-4.279l-3.471,3.931c-31.141,34.912-48.29,79.789-48.29,126.353c0,45.054,16.303,88.907,45.937,123.524l2.727,3.123      l6.269-5.332c1.189-1.021,2.408-2.042,3.585-3.087l3.093-2.702l-2.69-3.146C222.879,259.167,207.988,219.259,207.988,178.307z" fill="#5d0d0a"/>
                    </g>
                    <g>
                        <path d="M153.527,178.307c0-57.442,21.605-112.358,60.849-154.639l2.847-3.086l-5.176-4.741      c-1.483-1.378-2.942-2.744-4.479-4.065l-3.051-2.645l-2.75,2.963c-42.13,45.43-65.323,104.459-65.323,166.213      c0,57.868,20.716,114.079,58.31,158.292l2.72,3.225l3.867-3.326c1.939-1.688,3.897-3.351,5.873-4.96l3.362-2.69l-2.798-3.267      C172.791,284.423,153.527,232.122,153.527,178.307z" fill="#5d0d0a"/>
                    </g>
                </g>
            </g>
        </g>
    </svg>

</svg>