<?xml version="1.0" encoding="utf-8"?>
<!-- Svg Vector Icons : http://www.onlinewebfonts.com/icon -->
<!DOCTYPE svg PUBLIC "-//W3C//DTD SVG 1.1//EN" "http://www.w3.org/Graphics/SVG/1.1/DTD/svg11.dtd">
<svg version="1.1" xmlns="http://www.w3.org/2000/svg" xmlns:xlink="http://www.w3.org/1999/xlink" x="0px" y="0px" viewBox="0 0 1000 1000" enable-background="new 0 0 1000 1000" xml:space="preserve">
<metadata> Svg Vector Icons : http://www.onlinewebfonts.com/icon </metadata>
<g><g transform="translate(0.000000,492.000000) scale(0.100000,-0.100000)"><path d="M2291.6,4608.7c-262.2-38.3-570.4-256.5-696.7-493.8c-63.2-120.6-116.8-300.5-116.8-396.2v-59.3l-153.1-11.5c-246.9-19.1-371.3-109.1-423-306.3l-24.9-90H664.6c-266.1,0-342.6-21.1-442.1-122.5C113.4,3022,94.3,2941.6,103.8,2620c5.7-252.7,7.7-264.1,63.2-354.1c38.3-61.3,86.1-107.2,141.6-137.8c76.6-40.2,109.1-44,329.2-44h243.1l13.4-72.7c34.4-206.7,210.5-329.2,474.7-329.2h109.1v-392.4V897.3h-137.8c-168.4,0-266-40.2-356-141.6c-32.5-38.3-70.8-107.2-82.3-153.1l-21.1-84.2l-241.2-7.7c-273.7-7.7-363.7-38.3-449.8-153.1c-74.7-99.5-90-178-90-436.4c0-258.4,15.3-336.9,90-436.4c86.1-114.8,176.1-145.5,449.8-153.1l241.2-7.7l21.1-84.2c11.5-45.9,49.8-114.8,82.3-153.1c90-101.4,187.6-141.6,356-141.6h137.8v-392.4v-392.4H1369c-264.1,0-440.2-122.5-474.7-329.2l-13.4-72.7H637.9c-220.1,0-252.7-3.8-329.2-44c-55.5-30.6-103.4-76.6-141.6-137.8c-55.5-90-57.4-101.4-63.2-354.1c-9.6-321.6,9.6-402,118.7-509.1c99.5-101.5,176.1-122.5,442.1-122.5h212.5l24.9-90c51.7-197.1,176.1-287.1,423-306.2l153.1-11.5v-59.3c0-34.5,13.4-111,28.7-174.2c95.7-365.6,428.7-664.2,803.9-717.8c181.8-24.9,5196.7-24.9,5378.5,0c375.1,53.6,708.2,352.2,803.9,717.8c15.3,63.2,28.7,139.7,28.7,174.2v59.3l153.1,11.5c246.9,19.1,371.3,109.1,423,306.2l24.9,90h212.5c266.1,0,342.6,21,442.1,122.5c109.1,107.2,128.3,187.6,118.7,509.1c-5.7,252.7-7.6,264.1-63.2,354.1c-38.3,61.3-86.1,107.2-141.7,137.8c-76.6,40.2-109.1,44-329.2,44h-243.1l-13.4,72.7c-34.5,206.7-210.5,329.2-472.8,329.2h-111v392.4v392.4h139.7c166.5,0,264.1,40.2,354.1,141.6c32.5,38.3,70.8,107.2,82.3,153.1l21.1,84.2l241.2,7.7c273.7,7.6,363.7,38.3,449.8,153.1c74.6,99.5,90,178,90,436.4c0,258.4-15.3,336.9-90,436.4c-86.1,114.8-176.1,145.5-449.8,153.1l-241.2,7.7l-21.1,84.2c-11.5,45.9-49.8,114.8-82.3,153.1c-90,101.4-187.6,141.6-354.1,141.6h-139.7v392.4v392.4h111c262.2,0,438.3,122.5,472.8,329.2l13.4,72.7h243.1c220.1,0,252.6,3.8,329.2,44c55.5,30.6,103.4,76.6,141.7,137.8c55.5,90,57.4,101.4,63.2,354.1c9.6,321.6-9.6,402-118.7,509.1c-99.5,101.4-176.1,122.5-442.1,122.5h-212.5l-24.9,90c-51.7,197.1-176.1,287.1-423,306.3l-153.1,11.5v59.3c0,34.5-13.4,111-28.7,174.2c-95.7,365.6-428.8,664.2-803.9,717.8C7522.7,4633.6,2456.2,4631.7,2291.6,4608.7z M7744.8,4197.2c122.5-42.1,281.3-191.4,338.8-317.7l45.9-101.4V-78.8v-3856.8l-45.9-101.4c-57.4-128.2-218.2-277.5-342.6-317.7c-82.3-28.7-361.8-30.6-2769.6-26.8l-2679.7,5.7l-86.1,44c-120.6,63.2-239.3,183.8-290.9,298.6l-44,97.6V-88.4c0,3738.2,1.9,3849.2,36.4,3941.1c59.3,153.1,193.3,283.3,365.6,350.3c42.1,17.2,727.3,23,2719.9,23C7388.7,4227.8,7662.5,4224,7744.8,4197.2z M1478.1,2667.9v-583.8h-105.3h-105.3v570.4c0,313.9,5.7,578.1,13.4,583.8c5.7,7.7,53.6,13.4,105.3,13.4h91.9V2667.9z M8728.6,2664l3.8-580h-105.3h-105.3v585.7v583.8l101.4-5.8l99.5-5.7L8728.6,2664z M884.8,2667.9V2465l-195.2,5.7l-197.1,5.7l-5.7,170.4c-3.8,93.8-1.9,181.8,3.8,197.2c7.7,19.1,59.3,24.9,202.9,24.9h191.4V2667.9z M9507.6,2667.9v-191.4l-195.2-5.7l-197.1-5.7v202.9v202.9l197.1-5.8l195.2-5.7V2667.9z M1468.6-78.8v-583.8h-95.7h-95.7L1271.4-98c-1.9,310.1,0,576.1,5.7,589.5c5.7,17.2,38.3,23,99.5,19.1l91.9-5.7V-78.8z M8722.9-78.8v-583.8h-95.7h-95.7L8525.7-98c-1.9,310.1,0,576.1,5.7,589.5c5.7,17.2,38.3,23,99.5,19.1l91.9-5.7V-78.8z M884.8-78.8v-193.3l-195.2,5.8l-197.1,5.7l-5.7,160.8c-3.8,88.1-1.9,172.3,3.8,187.6c7.7,19.1,59.3,24.9,202.9,24.9h191.4V-78.8z M9507.6-78.8v-181.8l-195.2-5.7l-197.1-5.8v193.3v193.3l197.1-5.8l195.2-5.7V-78.8z M1478.1-2827.4v-583.8l-99.5,5.7l-101.4,5.7l-5.7,580l-3.8,578.1h105.3h105.3V-2827.4z M8728.6-2819.8l-5.7-580l-99.5-5.7l-101.4-5.7v583.8v585.7h105.3h105.3L8728.6-2819.8z M884.8-2825.5v-202.9l-195.2,5.7l-197.1,5.7l-5.7,170.3c-3.8,93.8-1.9,181.8,3.8,197.2c7.7,19.1,59.3,24.9,202.9,24.9h191.4V-2825.5z M9507.6-2825.5v-191.4l-195.2-5.7l-197.1-5.7v202.9v202.9l197.1-5.7l195.2-5.7V-2825.5z"/><path d="M3501.3,3041.1c-342.6-86.1-535.9-438.3-423-771.4c36.4-107.2,176.1-268,273.7-319.7c300.5-151.2,671.8-21.1,811.6,285.2c57.4,124.4,57.4,338.8-1.9,472.8C4052.5,2953.1,3753.9,3102.4,3501.3,3041.1z"/></g></g>
</svg>