<svg xmlns="http://www.w3.org/2000/svg" xmlns:xlink="http://www.w3.org/1999/xlink" version="1.1" id="icon" x="0px" y="0px" viewBox="0 0 438.971 438.971" enable-background="new 0 0 438.971 438.971" xml:space="preserve">
<g style="fill: rgb(255, 255, 255);">
	<path d="M432.971,346.033h-6.985c-4.5,0-4.938-2.703-4.938-4.75c0-11.527,0-36.109,0-45.917c0-2.5,2.105-2.28,2.105-2.28h1.091   c5.506,0,7.189-3.653,7.573-4.773c0.384-1.12,1.301-5.036-3.043-8.418l-59.565-46.378c-1.889-1.471-4.319-2.281-6.844-2.281   c-2.525,0-4.955,0.811-6.843,2.28l-59.564,46.379c-4.345,3.382-3.428,7.298-3.044,8.418c0.385,1.12,2.067,4.773,7.573,4.773h1.19   c0,0,2.007,0.072,2.007,2.197c0,9.897,0,34.818,0,46.25c0,1.931-0.075,4.5-4.075,4.5h-36.875c-3.375,0-4.801-1.616-5.523-2.46   L35.547,84.564c-2.564-2.997-5.174-3.626-6.91-3.626c-3.637,0-7.55,2.807-7.55,8.969v251.502c0,0,0.148,4.625-6.102,4.625   c-2.246,0-8.985,0-8.985,0c-3.313,0-6,2.686-6,6c0,3.313,2.687,6,6,6h27.087h217.469h182.415c3.313,0,6-2.687,6-6   C438.971,348.72,436.284,346.033,432.971,346.033z M313.37,281.546l45.613-35.515c0,0,2.311-1.748,3.383-1.748   c1.111,0,3.509,1.846,3.509,1.846l45.926,35.758c1.122,1.022,0.531,1.775,0.143,2.168c-1.789,1.808-2.895,4.293-2.895,7.031v50.572   c0,0,0.563,3.775-4.688,3.775c-4.656,0-12.797,0-18.625,0c-4.875,0-4.162-3.775-4.162-3.775v-6.606   c0-2.181,0.022-5.748,0.049-7.925c0.009-0.715-0.057-7.134-4.999-12.138c-2.444-2.475-6.973-5.425-14.667-5.425   c-7.427,0-11.79,2.902-14.143,5.338c-4.893,5.065-4.813,11.628-4.787,12.36c0.073,2.134,0.134,5.628,0.134,7.789v6.231   c0,0,0.45,4.15-4.3,4.15c-4.813,0-13.362,0-19.25,0c-4.5,0-3.925-4.15-3.925-4.15v-50.197c0-2.603-1-4.978-2.637-6.76   C312.591,283.827,311.985,282.783,313.37,281.546z M355.022,326.92c0.024-3.554,2.357-5.355,6.935-5.355   c6.18,0,7.583,2.979,7.666,5.492c-0.026,2.226-0.049,5.801-0.049,7.995v7.106c0,0,0.662,3.875-3.963,3.875   c-1.469,0-3.416,0-5.875,0c-4.75,0-4.575-3.5-4.575-3.5v-7.481C355.16,332.801,355.098,329.174,355.022,326.92z M37.36,346.033   c-4.875,0-4.273-3.875-4.273-3.875V100.145l206.891,241.75c0,0,3.258,4.139-3.242,4.139   C186.892,346.033,88.9,346.033,37.36,346.033z" style="fill: rgb(255, 255, 255);"></path>
	<path d="M177.833,235.481c0.006,0.007,0.01,0.013,0.016,0.02l19.4,22.989c6.871,8.142,16.927,12.812,27.59,12.812   c8.495,0,16.755-3.021,23.257-8.508c7.365-6.216,11.869-14.928,12.682-24.531c0.814-9.604-2.162-18.949-8.377-26.314   c-6.868-8.14-16.921-12.808-27.581-12.808c-2.977,0-5.944,0.181-8.729,1.064c-2.418,0.766-3.425-0.355-4.03-0.814   c-4.305-3.257-9.584-5.057-15.097-5.057c-5.893,0-11.621,2.096-16.131,5.901c-2.648,2.234-4.714,4.905-6.184,7.819   c-0.554,1.097-2.164,3.061-3.922,0.401l-8.184-9.697c-1.726-2.227-0.174-3.374,0.858-3.809c1.847-0.777,3.581-1.829,5.134-3.14   c4.114-3.472,6.63-8.339,7.084-13.704c0.455-5.366-1.208-10.587-4.681-14.701c-2.076-2.46-6.531-4.492-7.635-5.596   c-0.784-0.784-2.156-6.007-4.233-8.468c-3.837-4.546-9.452-7.154-15.406-7.154c-0.284,0-0.567,0.006-0.85,0.018   c-1.028,0.042-3.163,0.244-4.482-1.352l-17.965-21.287c-2.851-3.379-7.022-5.316-11.446-5.316c-3.526,0-6.954,1.254-9.65,3.53   c-0.294,0.248-0.576,0.507-0.847,0.775c-0.661,0.655-2.022,1.977-3.373,0.228l-12.994-15.398c-2.137-2.534-5.922-2.856-8.454-0.716   c-2.533,2.137-2.854,5.922-0.716,8.455L177.833,235.481z M188.572,209.407c2.348-1.981,5.328-3.072,8.392-3.072   c3.852,0,7.482,1.686,9.97,4.633c0.152,0.181,0.298,0.365,0.439,0.553l1.432,1.914c0,0,1.119,2.224,3.63,0.986   c0.561-0.276,2.268-1.053,2.268-1.053c3.184-1.478,6.588-2.227,10.118-2.227c7.117,0,13.827,3.115,18.41,8.547   c4.148,4.915,6.134,11.152,5.591,17.563c-0.542,6.409-3.549,12.224-8.464,16.372c-4.34,3.662-9.851,5.679-15.518,5.679   c-7.12,0-13.833-3.116-18.419-8.551l-19.4-22.989C182.388,222.273,183.084,214.039,188.572,209.407z M105.967,128.972   c0.039-0.458,0.227-1.329,1.045-2.021c0.686-0.578,1.417-0.7,1.91-0.7c0.88,0,1.709,0.385,2.275,1.055   c0,0,17.383,20.459,23.085,27.354c1.203,1.456,3.016,1.445,4.026,1.17c0.52-0.143,1.957-0.9,1.957-0.9   c1.069-0.492,2.213-0.741,3.399-0.741c2.411,0,4.684,1.055,6.236,2.895c1.251,1.482,1.933,3.369,1.919,5.313   c0,0-0.71,2.388,0.915,4.013c1.75,1.75,4.118,1.952,4.118,1.952c1.356,0.222,3.311,0.885,4.916,2.786   c1.405,1.665,2.077,3.777,1.893,5.948c-0.184,2.172-1.202,4.142-2.866,5.546c-1.885,1.59-3.897,1.924-5.255,1.924c0,0,0,0-0.001,0   c-2.412,0-4.687-1.056-6.241-2.898l-42.644-50.53C105.966,130.318,105.929,129.429,105.967,128.972z" style="fill: rgb(255, 255, 255);"></path>
</g>
<g style="fill: rgb(255, 255, 255);">
</g>
<g style="fill: rgb(255, 255, 255);">
</g>
<g style="fill: rgb(255, 255, 255);">
</g>
<g style="fill: rgb(255, 255, 255);">
</g>
<g style="fill: rgb(255, 255, 255);">
</g>
<g style="fill: rgb(255, 255, 255);">
</g>
<g style="fill: rgb(255, 255, 255);">
</g>
<g style="fill: rgb(255, 255, 255);">
</g>
<g style="fill: rgb(255, 255, 255);">
</g>
<g style="fill: rgb(255, 255, 255);">
</g>
<g style="fill: rgb(255, 255, 255);">
</g>
<g style="fill: rgb(255, 255, 255);">
</g>
<g style="fill: rgb(255, 255, 255);">
</g>
<g style="fill: rgb(255, 255, 255);">
</g>
<g style="fill: rgb(255, 255, 255);">
</g>
</svg>