<?xml version="1.0" encoding="utf-8"?>
<!-- Svg Vector Icons : http://www.onlinewebfonts.com/icon -->
<!DOCTYPE svg PUBLIC "-//W3C//DTD SVG 1.1//EN" "http://www.w3.org/Graphics/SVG/1.1/DTD/svg11.dtd">
<svg version="1.1" xmlns="http://www.w3.org/2000/svg" xmlns:xlink="http://www.w3.org/1999/xlink" x="0px" y="0px" viewBox="0 0 1000 1000" enable-background="new 0 0 1000 1000" xml:space="preserve">
<metadata> Svg Vector Icons : http://www.onlinewebfonts.com/icon </metadata>
<g><g transform="translate(0.000000,492.000000) scale(0.100000,-0.100000)"><path d="M6529.8,4808.5c-39.9-12-107.8-35.9-149.8-57.9c-41.9-22-780.8-748.8-1705.3-1673.4L3043.3,1443.7l-32-117.8c-43.9-147.8-32-311.5,30-433.3c26-49.9,169.7-215.7,345.5-391.4c165.7-167.7,297.5-307.5,291.5-311.5c-4-4-784.8-571.1-1735.3-1262c-950.5-688.9-1751.3-1276-1779.2-1302c-167.7-155.8,26-429.3,227.6-323.5c22,14,830.7,597.1,1797.2,1300c964.5,702.9,1765.2,1280,1777.2,1286c14,4,241.6-209.7,507.2-475.3l485.2-485.2L3528.5-2819.6c-786.8-960.5-1457.7-1783.2-1487.7-1825.1c-89.9-121.8-73.9-237.6,43.9-309.5c69.9-41.9,173.7-30,239.6,30c22,20,688.9,828.7,1481.7,1799.2l1441.7,1761.2l319.5-315.5c187.7-187.7,355.4-335.5,407.4-361.4c121.8-61.9,285.5-73.9,433.3-30l117.8,32L8167.2-397.4c1799.2,1797.2,1727.3,1715.3,1731.3,1960.9c4,255.6,73.9,171.7-1491.7,1741.3C7270.6,4443.1,6969.1,4734.6,6895.2,4766.5C6781.4,4814.5,6629.6,4832.4,6529.8,4808.5z M8107.3,3025.3c1302-1300,1383.8-1385.8,1383.8-1451.7c0-65.9-93.9-161.7-1591.5-1659.4c-900.6-902.6-1609.5-1595.5-1633.4-1599.5c-24-6-65.9-2-91.8,8c-63.9,24-2729.7,2685.8-2761.7,2757.7c-14,31.9-22,77.9-18,101.8c6,28,659,694.9,1601.5,1635.4c1497.7,1497.7,1593.5,1591.5,1659.4,1591.5C6721.5,4409.1,6807.4,4327.2,8107.3,3025.3z"/></g></g>
</svg>