<?xml version="1.0" encoding="utf-8"?>
<!DOCTYPE svg>
<svg version="1.1" xmlns="http://www.w3.org/2000/svg" x="0px" y="0px"  viewBox="0 0 463 463" xml:space="preserve">
    <g style="fill: rgb(255, 255, 255);">
        <path d="m455.5,414.572c-74.076,0-109.026-8.352-137.109-15.062-20.071-4.796-37.405-8.938-62.891-8.938-35.701,0-68.799,6.769-100.808,13.314-26.873,5.496-52.256,10.686-75.192,10.686h-15.679c11.853-4.317 24.905-9.328 38.91-14.705 67.65-25.972 151.842-58.295 216.769-58.295 78.971,0 130.992,38.121 131.508,38.506 3.313,2.478 8.009,1.805 10.492-1.506 2.485-3.313 1.813-8.015-1.5-10.5-1.883-1.412-39.723-29.28-101-38.536v-12.7c13.759-2.732 24-12.796 24-24.764 0-5.857-2.852-20.228-7.46-33.233-6.74-19.021-14.604-28.267-24.04-28.267-4.043,0-7.797,1.703-11.298,5.139-1.685-7.674-4.07-16.418-6.997-24.766-8.583-24.476-18.299-36.374-29.705-36.374s-21.123,11.898-29.705,36.374c-6.05,17.255-9.795,36.213-9.795,43.883 0,15.447 13.795,28.345 32,31.171v40.427c-43.648-25.011-89.75-35.328-137.091-30.651-39.233,3.874-69.197,17.318-81.471,22.987-20.729-9.094-44.025-16.19-69.938-16.19-4.142,0-7.5,3.358-7.5,7.5s3.358,7.5 7.5,7.5c39.332,0 71.958,17.887 100.743,33.668 12.365,6.779 23.81,13.049 34.744,17.354-15.743,5.797-31.067,11.678-45.632,17.27-40.125,15.404-74.778,28.708-89.855,28.708-4.142,0-7.5,3.358-7.5,7.5s3.358,7.5 7.5,7.5h72c24.455,0 50.56-5.338 78.197-10.99 31.277-6.396 63.62-13.01 97.803-13.01 23.719,0 39.467,3.763 59.405,8.527 28.849,6.894 64.751,15.473 140.595,15.473 4.142,0 7.5-3.358 7.5-7.5s-3.358-7.5-7.5-7.5zm-136-88c-2.8,0-5.641,0.076-8.5,0.186v-40.759c3.519-0.546 6.872-1.468 9.994-2.713-0.642,3.675-0.994,6.751-0.994,8.786 0,11.968 10.241,22.032 24,24.764v10.874c-7.848-0.729-16.018-1.138-24.5-1.138zm32-80.857c1.606,1.075 5.908,6.175 10.593,20.142 3.803,11.337 5.907,22.697 5.907,26.215 0,3.899-3.752,7.459-9,9.261v-7.261c0-4.142-3.358-7.5-7.5-7.5s-7.5,3.358-7.5,7.5v7.261c-5.248-1.802-9-5.362-9-9.261 0-3.518 2.104-14.878 5.907-26.215 4.685-13.967 8.987-19.067 10.593-20.142zm-72.5,9.113c0-5.593 3.405-23.105 8.95-38.919 7.667-21.867 14.216-26.337 15.55-26.337s7.882,4.47 15.55,26.337c5.545,15.814 8.95,33.326 8.95,38.919 0,7.301-7.255,13.687-17,15.911v-16.668c0-4.142-3.358-7.5-7.5-7.5s-7.5,3.358-7.5,7.5v16.668c-9.745-2.224-17-8.61-17-15.911zm-163.546,83.259c-6.371-3.493-13.087-7.174-20.148-10.79 14.58-6.011 37.433-13.865 65.077-16.594 38.4-3.792 75.988,3.022 112.022,20.258-33.554,5.719-69.214,16.421-103.743,28.428-14.987-0.353-32.725-10.073-53.208-21.302z" style="fill: rgb(255, 255, 255);"></path>
        <path d="m10.334,125.572h442.94c3.174,0 6.004-1.998 7.067-4.988 1.789-5.033 2.659-9.817 2.659-14.626 0-24.175-19.668-43.843-43.843-43.843-5.298,0-10.483,0.988-15.484,2.944-8.269-9.53-20.181-15.059-32.973-15.059-12.792,0-24.705,5.529-32.973,15.058-5.001-1.956-10.187-2.944-15.484-2.944-7.87,0-15.256,2.095-21.648,5.741-6.805-4.066-14.516-6.198-22.58-6.198-5.356,0-10.597,1.001-15.651,2.985-8.334-9.627-20.354-15.214-33.263-15.214-8.717,0-17.023,2.556-24.069,7.175-8.376-5.077-17.913-7.746-27.817-7.746-6.967,0-13.779,1.396-20.328,4.159-10.17-12.373-25.205-19.588-41.387-19.588s-31.217,7.215-41.387,19.588c-6.548-2.763-13.36-4.159-20.328-4.159-29.657,7.10543e-15-53.785,24.128-53.785,53.786 0,5.886 1.069,11.755 3.268,17.94 1.063,2.991 3.893,4.989 7.066,4.989zm326.022-44.587c3.477,1.971 7.892,0.868 10.033-2.509 5.349-8.438 14.437-13.476 24.311-13.476 9.874,0 18.961,5.038 24.311,13.476 2.141,3.377 6.555,4.481 10.034,2.509 4.529-2.568 9.277-3.87 14.113-3.87 15.904,0 28.843,12.939 28.843,28.843 0,1.513-0.143,3.044-0.432,4.614h-153.737c-0.29-1.57-0.432-3.101-0.432-4.614 0-15.904 12.939-28.843 28.843-28.843 4.835,0 9.583,1.302 14.113,3.87zm-82.656-2.92c2.142,3.377 6.555,4.481 10.034,2.508 4.582-2.598 9.386-3.916 14.28-3.916 3.508,0 6.908,0.629 10.108,1.811-6.075,7.525-9.723,17.087-9.723,27.489 0,1.538 0.089,3.073 0.269,4.614h-127.22c-0.3-1.609-0.448-3.178-0.448-4.729 0-16.093 13.093-29.186 29.186-29.186 4.894,0 9.699,1.317 14.281,3.916 3.476,1.971 7.892,0.869 10.034-2.509 5.413-8.539 14.608-13.636 24.6-13.636s19.186,5.099 24.599,13.638zm-199.914-14.208c6.518,0 12.906,1.748 18.985,5.196 3.478,1.973 7.893,0.869 10.034-2.508 7.191-11.344 19.413-18.116 32.695-18.116s25.504,6.772 32.695,18.116c1.391,2.194 3.741,3.421 6.17,3.476-11.113,8.033-18.365,21.093-18.365,35.822 0,1.575 0.103,3.149 0.29,4.729h-120.358c-0.625-2.713-0.932-5.336-0.932-7.929 0-21.387 17.399-38.786 38.786-38.786z" style="fill: rgb(255, 255, 255);"></path>
        <path d="m23.5,198.57c-4.142,0-7.5,3.358-7.5,7.5v72.002c0,4.142 3.358,7.5 7.5,7.5s7.5-3.358 7.5-7.5v-72.002c0-4.142-3.358-7.5-7.5-7.5z" style="fill: rgb(255, 255, 255);"></path>
        <path d="m31,150.072c0-4.142-3.358-7.5-7.5-7.5s-7.5,3.358-7.5,7.5v23.999c0,4.142 3.358,7.5 7.5,7.5s7.5-3.358 7.5-7.5v-23.999z" style="fill: rgb(255, 255, 255);"></path>
        <path d="m55.5,262.572c-4.142,0-7.5,3.358-7.5,7.5v16c0,4.142 3.358,7.5 7.5,7.5s7.5-3.358 7.5-7.5v-16c0-4.142-3.358-7.5-7.5-7.5z" style="fill: rgb(255, 255, 255);"></path>
        <path d="m63,222.071c0-4.142-3.358-7.5-7.5-7.5s-7.5,3.358-7.5,7.5v16c0,4.142 3.358,7.5 7.5,7.5s7.5-3.358 7.5-7.5v-16z" style="fill: rgb(255, 255, 255);"></path>
        <path d="m63,150.072c0-4.142-3.358-7.5-7.5-7.5s-7.5,3.358-7.5,7.5v40c0,4.142 3.358,7.5 7.5,7.5s7.5-3.358 7.5-7.5v-40z" style="fill: rgb(255, 255, 255);"></path>
        <path d="m87.5,182.572c-4.142,0-7.5,3.358-7.5,7.5v96c0,4.142 3.358,7.5 7.5,7.5s7.5-3.358 7.5-7.5v-96c0-4.142-3.358-7.5-7.5-7.5z" style="fill: rgb(255, 255, 255);"></path>
        <path d="m95,150.072c0-4.142-3.358-7.5-7.5-7.5s-7.5,3.358-7.5,7.5v8c0,4.142 3.358,7.5 7.5,7.5s7.5-3.358 7.5-7.5v-8z" style="fill: rgb(255, 255, 255);"></path>
        <path d="m119.5,246.571c-4.142,0-7.5,3.358-7.5,7.5v24.001c0,4.142 3.358,7.5 7.5,7.5s7.5-3.358 7.5-7.5v-24.001c0-4.142-3.358-7.5-7.5-7.5z" style="fill: rgb(255, 255, 255);"></path>
        <path d="m127,150.072c0-4.142-3.358-7.5-7.5-7.5s-7.5,3.358-7.5,7.5v71.998c0,4.142 3.358,7.5 7.5,7.5s7.5-3.358 7.5-7.5v-71.998z" style="fill: rgb(255, 255, 255);"></path>
        <path d="m151.5,214.572c-4.142,0-7.5,3.358-7.5,7.5v48c0,4.142 3.358,7.5 7.5,7.5s7.5-3.358 7.5-7.5v-48c0-4.142-3.358-7.5-7.5-7.5z" style="fill: rgb(255, 255, 255);"></path>
        <path d="m159,150.072c0-4.142-3.358-7.5-7.5-7.5s-7.5,3.358-7.5,7.5v39.999c0,4.142 3.358,7.5 7.5,7.5s7.5-3.358 7.5-7.5v-39.999z" style="fill: rgb(255, 255, 255);"></path>
        <path d="m183.5,182.573c-4.142,0-7.5,3.358-7.5,7.5v79.999c0,4.142 3.358,7.5 7.5,7.5s7.5-3.358 7.5-7.5v-79.999c0-4.142-3.358-7.5-7.5-7.5z" style="fill: rgb(255, 255, 255);"></path>
        <path d="m191,150.072c0-4.142-3.358-7.5-7.5-7.5s-7.5,3.358-7.5,7.5v8.001c0,4.142 3.358,7.5 7.5,7.5s7.5-3.358 7.5-7.5v-8.001z" style="fill: rgb(255, 255, 255);"></path>
        <path d="m215.5,246.571c-4.142,0-7.5,3.358-7.5,7.5v16.001c0,4.142 3.358,7.5 7.5,7.5s7.5-3.358 7.5-7.5v-16.001c0-4.142-3.358-7.5-7.5-7.5z" style="fill: rgb(255, 255, 255);"></path>
        <path d="m223,206.074c0-4.142-3.358-7.5-7.5-7.5s-7.5,3.358-7.5,7.5v15.997c0,4.142 3.358,7.5 7.5,7.5s7.5-3.358 7.5-7.5v-15.997z" style="fill: rgb(255, 255, 255);"></path>
        <path d="m223,150.072c0-4.142-3.358-7.5-7.5-7.5s-7.5,3.358-7.5,7.5v24.001c0,4.142 3.358,7.5 7.5,7.5s7.5-3.358 7.5-7.5v-24.001z" style="fill: rgb(255, 255, 255);"></path>
        <path d="m247.5,238.572c-4.142,0-7.5,3.358-7.5,7.5v32c0,4.142 3.358,7.5 7.5,7.5s7.5-3.358 7.5-7.5v-32c0-4.142-3.358-7.5-7.5-7.5z" style="fill: rgb(255, 255, 255);"></path>
        <path d="m255,150.072c0-4.142-3.358-7.5-7.5-7.5s-7.5,3.358-7.5,7.5v64c0,4.142 3.358,7.5 7.5,7.5s7.5-3.358 7.5-7.5v-64z" style="fill: rgb(255, 255, 255);"></path>
        <path d="m272,150.072v8c0,4.142 3.358,7.5 7.5,7.5s7.5-3.358 7.5-7.5v-8c0-4.142-3.358-7.5-7.5-7.5s-7.5,3.358-7.5,7.5z" style="fill: rgb(255, 255, 255);"></path>
        <path d="m304,150.072v8c0,4.142 3.358,7.5 7.5,7.5s7.5-3.358 7.5-7.5v-8c0-4.142-3.358-7.5-7.5-7.5s-7.5,3.358-7.5,7.5z" style="fill: rgb(255, 255, 255);"></path>
        <path d="m336,150.072v32c0,4.142 3.358,7.5 7.5,7.5s7.5-3.358 7.5-7.5v-32c0-4.142-3.358-7.5-7.5-7.5s-7.5,3.358-7.5,7.5z" style="fill: rgb(255, 255, 255);"></path>
        <path d="m375.5,182.569c-4.142,0-7.5,3.358-7.5,7.5v24.002c0,4.142 3.358,7.5 7.5,7.5s7.5-3.358 7.5-7.5v-24.002c0-4.142-3.358-7.5-7.5-7.5z" style="fill: rgb(255, 255, 255);"></path>
        <path d="m383,150.072c0-4.142-3.358-7.5-7.5-7.5s-7.5,3.358-7.5,7.5v8.001c0,4.142 3.358,7.5 7.5,7.5s7.5-3.358 7.5-7.5v-8.001z" style="fill: rgb(255, 255, 255);"></path>
        <path d="m407.5,254.575c-4.142,0-7.5,3.358-7.5,7.5v55.997c0,4.142 3.358,7.5 7.5,7.5s7.5-3.358 7.5-7.5v-55.997c0-4.142-3.358-7.5-7.5-7.5z" style="fill: rgb(255, 255, 255);"></path>
        <path d="m415,150.072c0-4.142-3.358-7.5-7.5-7.5s-7.5,3.358-7.5,7.5v80c0,4.142 3.358,7.5 7.5,7.5s7.5-3.358 7.5-7.5v-80z" style="fill: rgb(255, 255, 255);"></path>
        <path d="m439.5,302.571c-4.142,0-7.5,3.358-7.5,7.5v24c0,4.142 3.358,7.5 7.5,7.5s7.5-3.358 7.5-7.5v-24c0-4.142-3.358-7.5-7.5-7.5z" style="fill: rgb(255, 255, 255);"></path>
        <path d="m447,206.073c0-4.142-3.358-7.5-7.5-7.5s-7.5,3.358-7.5,7.5v72c0,4.142 3.358,7.5 7.5,7.5s7.5-3.358 7.5-7.5v-72z" style="fill: rgb(255, 255, 255);"></path>
        <path d="m447,150.072c0-4.142-3.358-7.5-7.5-7.5s-7.5,3.358-7.5,7.5v24.001c0,4.142 3.358,7.5 7.5,7.5s7.5-3.358 7.5-7.5v-24.001z" style="fill: rgb(255, 255, 255);"></path>
    </g>
</svg>