<?xml version="1.0" encoding="utf-8"?>
<!-- Svg Vector Icons : http://www.onlinewebfonts.com/icon -->
<!DOCTYPE svg PUBLIC "-//W3C//DTD SVG 1.1//EN" "http://www.w3.org/Graphics/SVG/1.1/DTD/svg11.dtd">
<svg version="1.1" xmlns="http://www.w3.org/2000/svg" xmlns:xlink="http://www.w3.org/1999/xlink" x="0px" y="0px" viewBox="0 0 1000 1000" enable-background="new 0 0 1000 1000" xml:space="preserve">
<metadata> Svg Vector Icons : http://www.onlinewebfonts.com/icon </metadata>
<g><g transform="translate(0.000000,512.000000) scale(0.100000,-0.100000)"><path d="M477.4,4990c-115-40.2-275.9-195.4-331.5-316.1l-46-101.5V117.7v-4454.6l40.2-88.1c86.2-185.8,237.6-304.6,438.7-343c84.3-15.3,1281.8-19.2,4364.5-15.3l4251.5,5.7l55.5,63.2c63.2,69,72.8,147.5,28.7,229.9C9239-4409.6,7794.4-2976.5,7723.5-2942c-61.3,32.6-93.9,28.7-283.6-32.6c-507.7-162.9-1074.8,141.8-1226.2,659.1c-36.4,124.5-42.1,402.4-11.5,519.2c92,337.2,369.8,615,707,707c116.9,30.6,394.7,24.9,519.2-11.5c438.8-128.4,745.3-576.7,701.2-1021.2c-7.6-67.1-30.6-172.4-49.8-233.8c-80.5-235.7-130.3-162.9,695.5-990.5c402.3-404.3,766.4-760.6,806.6-791.3c111.1-82.4,222.2-67.1,285.5,40.2c30.7,49.8,32.6,375.5,32.6,4347.3v4291.7l-40.2,111.1c-55.6,145.6-183.9,274-329.6,329.5c-109.2,40.2-118.8,40.2-1845,40.2c-1504,0-1743.5-3.8-1797.2-28.7c-93.9-46-2151.6-2115.2-2168.8-2182.2c-9.6-38.3,1.9-101.5,38.3-206.9c57.5-170.5,70.9-423.4,30.7-572.9c-92-337.2-369.8-615-707-707c-116.9-30.7-394.7-24.9-519.2,11.5c-465.6,137.9-772.1,620.8-691.7,1094c72.8,425.3,408.1,751,837.3,814.3c160.9,23,272.1,9.6,534.5-67.1c65.1-19.2,111.1-21.1,143.7-9.6c57.5,21.1,1542.3,1496.3,1582.6,1571.1c49.8,95.8,19.2,208.8-70.9,256.7C4815.1,5037.9,598.1,5032.1,477.4,4990z M3805.4,4110.5l-528.8-528.8l-149.4,32.6c-208.8,47.9-521.1,32.6-712.7-34.5c-425.3-145.6-733.8-456-881.3-881.3c-70.9-205-82.4-521.1-26.8-741.5c214.6-858.3,1136.2-1295.2,1927.4-910.1c287.4,139.9,492.4,344.9,632.3,632.3c139.9,289.3,174.4,553.7,111.1,877.5l-32.6,168.6l958,958l956.1,956.1h1634.3c1814.4,0,1741.6,5.7,1795.2-122.6c24.9-59.4,28.7-597.8,28.7-4058v-3990.9l-530.7,530.7l-530.7,530.7l24.9,72.8c13.4,40.2,28.7,172.4,34.5,293.1c9.6,185.8,3.8,247.1-30.7,383.2C8269.5-863.2,7348-426.4,6556.7-811.5c-287.4-139.9-492.4-344.9-632.3-632.3c-187.8-385.1-187.8-820-1.9-1197.5c180.1-367.9,505.8-630.4,910.1-730c134.1-34.5,201.2-38.3,373.6-32.6c116.9,5.7,254.8,21.1,304.6,36.4l92,24.9l521.1-521.1l521.1-521.1H4625.4H603.9l-55.6,55.6l-55.6,55.5V113.9v4385.6l40.2,51.7c23,28.7,59.4,61.3,82.4,69c21.1,9.6,867.9,17.2,1879.5,17.2l1839.3,1.9L3805.4,4110.5z"/><path d="M6815.4,3604.7c-482.8-128.4-856.4-496.2-988.6-977.1c-46-160.9-47.9-559.5-3.8-691.7l28.8-90L4556.5,552.7L3261.3-738.7l-86.2,28.7c-128.4,42.1-528.8,42.1-689.7-3.8c-488.6-136-856.4-513.5-979-1007.8c-55.6-220.3-44.1-536.5,26.8-741.5c145.6-425.3,456-735.7,881.3-881.3c205-70.9,521.1-82.4,741.5-26.8c494.3,122.6,871.8,490.5,1007.8,979c46,160.9,46,561.4,3.8,689.7l-28.7,86.2L5430.1-321L6723.4,974.2l90.1-28.7c132.2-44.1,530.7-42.2,691.6,3.8c488.6,136,856.4,513.5,979,1007.8c55.6,220.3,44.1,536.5-26.8,741.5c-145.6,425.3-456,733.8-881.3,881.3C7380.5,3648.8,7022.3,3660.3,6815.4,3604.7z M7353.7,3233.1c390.9-84.3,697.4-406.2,766.4-802.8c80.5-473.2-226.1-956.1-691.6-1094c-168.6-49.8-410-42.2-605.4,17.2c-136,44.1-172.4,47.9-214.6,30.7c-80.5-34.5-2872-2835.6-2887.3-2898.8c-7.7-32.6,5.7-103.5,38.3-201.2c59.4-180.1,67.1-431.1,17.2-599.7c-137.9-465.6-620.8-772.1-1094-691.6c-413.8,70.9-741.5,398.5-812.4,812.3c-80.5,473.2,226.1,956.1,691.7,1094c168.6,49.8,410,42.1,605.4-17.2c136-44.1,172.4-47.9,214.6-30.7c80.5,34.5,2872,2835.6,2887.3,2898.8c7.7,32.6-5.8,103.5-38.3,201.2c-59.4,180.1-67.1,431.1-17.3,599.7c74.7,256.7,270.2,486.6,509.6,601.6C6941.8,3258,7125.7,3281,7353.7,3233.1z"/><path d="M6997.4,2631.5c-136-63.2-239.5-218.4-239.5-360.2c0-74.7,57.5-208.8,118.8-270.1c59.4-61.3,195.4-120.7,272.1-120.7c84.3,0,189.7,44.1,260.6,107.3c254.8,231.8,115,645.7-226.1,670.6C7102.7,2665.9,7052.9,2658.3,6997.4,2631.5z"/><path d="M2707.6-1673.7c-164.8-59.4-275.9-235.7-254.8-411.9c28.7-247.2,289.3-406.2,519.2-318.1c143.7,55.6,260.6,218.4,260.6,367.9c0,76.6-59.4,212.7-120.7,272.1c-65.1,63.2-197.3,118.8-279.7,118.8C2805.3-1646.8,2749.7-1658.3,2707.6-1673.7z"/><path d="M2724.8,2652.5c-128.4-32.6-254.8-185.8-272.1-331.5c-26.8-224.2,164.8-440.7,388.9-440.7c76.6,0,212.7,59.4,272.1,120.7c61.3,61.3,118.8,195.4,118.8,270.1c0,141.8-103.5,297-239.5,358.3C2920.3,2664,2807.2,2671.7,2724.8,2652.5z"/><path d="M7016.5-1675.6c-139.9-51.7-258.7-218.4-258.7-360.2c0-224.2,216.5-415.8,440.7-388.9c329.5,40.2,459.8,448.3,210.8,672.5C7294.3-1648.7,7162.1-1621.9,7016.5-1675.6z"/></g></g>
</svg>