<svg xmlns="http://www.w3.org/2000/svg" xmlns:xlink="http://www.w3.org/1999/xlink" version="1.1" id="icon" x="0px" y="0px" viewBox="0 0 213.273 213.273" xml:space="preserve">
    <path d="M164.637,203.273h-4.59v-11.921c0-2.762-2.239-5-5-5h-5.423v-31.216v-8.761c0-12.903-6.503-24.736-17.395-31.653  l-12.535-7.961l0.703-0.697l11.831-7.514c10.892-6.917,17.395-18.75,17.395-31.653V26.921h5.423c2.761,0,5-2.238,5-5V10h4.59  c2.761,0,5-2.238,5-5s-2.239-5-5-5h-9.59h-96.82h-9.59c-2.761,0-5,2.238-5,5s2.239,5,5,5h4.59v11.921c0,2.762,2.239,5,5,5h5.423  v39.977c0,12.903,6.503,24.736,17.395,31.653l10.362,6.581l1.982,1.752l-12.344,7.839c-10.892,6.917-17.395,18.75-17.395,31.653  v8.761v31.216h-5.423c-2.761,0-5,2.238-5,5v11.921h-4.59c-2.761,0-5,2.238-5,5s2.239,5,5,5h9.59h96.82h9.59c2.761,0,5-2.238,5-5  S167.398,203.273,164.637,203.273z M139.624,146.376v1.41l-27.987-11.055v-23.33c0.293,0.244,0.603,0.473,0.931,0.681l14.301,9.082  C134.855,128.236,139.624,136.914,139.624,146.376z M139.624,26.921v39.977c0,4.212-0.95,8.266-2.703,11.919H76.353  C74.6,75.164,73.65,71.11,73.65,66.897V26.921H139.624z M86.406,123.164l14.299-9.081c0.328-0.208,0.638-0.437,0.932-0.681v23.338  L73.65,147.788v-1.412C73.65,136.914,78.418,128.236,86.406,123.164z"></path>
</svg>