<svg xmlns="http://www.w3.org/2000/svg" xmlns:xlink="http://www.w3.org/1999/xlink" version="1.1" id="icon" x="0px" y="0px" viewBox="0 0 460 460" style="fill: rgb(255, 255, 255);" xml:space="preserve">
<g id="XMLID_241_" style="fill: rgb(255, 255, 255);">
	<path id="XMLID_1213_" d="M137.999,48.421H79.894c-4.011,0-7.263,3.251-7.263,7.263v58.105c0,4.012,3.252,7.263,7.263,7.263h58.105   c4.011,0,7.263-3.251,7.263-7.263V55.684C145.262,51.672,142.01,48.421,137.999,48.421z M130.736,106.526H87.157V62.947h43.579   V106.526z" style="fill: rgb(255, 255, 255);"></path>
	<path id="XMLID_1360_" d="M186.42,121.053h58.105c4.011,0,7.263-3.251,7.263-7.263V55.684c0-4.012-3.252-7.263-7.263-7.263H186.42   c-4.011,0-7.263,3.251-7.263,7.263v58.105C179.157,117.801,182.409,121.053,186.42,121.053z M193.683,62.947h43.579v43.579h-43.579   V62.947z" style="fill: rgb(255, 255, 255);"></path>
	<path id="XMLID_1363_" d="M137.999,145.263H79.894c-4.011,0-7.263,3.251-7.263,7.263v58.105c0,4.012,3.252,7.263,7.263,7.263   h58.105c4.011,0,7.263-3.251,7.263-7.263v-58.105C145.262,148.515,142.01,145.263,137.999,145.263z M130.736,203.368H87.157   v-43.579h43.579V203.368z" style="fill: rgb(255, 255, 255);"></path>
	<path id="XMLID_1366_" d="M186.42,217.895h58.105c4.011,0,7.263-3.251,7.263-7.263v-58.105c0-4.012-3.252-7.263-7.263-7.263H186.42   c-4.011,0-7.263,3.251-7.263,7.263v58.105C179.157,214.643,182.409,217.895,186.42,217.895z M193.683,159.789h43.579v43.579   h-43.579V159.789z" style="fill: rgb(255, 255, 255);"></path>
	<path id="XMLID_1369_" d="M137.999,242.105H79.894c-4.011,0-7.263,3.251-7.263,7.263v58.105c0,4.012,3.252,7.263,7.263,7.263   h58.105c4.011,0,7.263-3.251,7.263-7.263v-58.105C145.262,245.357,142.01,242.105,137.999,242.105z M130.736,300.211H87.157   v-43.579h43.579V300.211z" style="fill: rgb(255, 255, 255);"></path>
	<path id="XMLID_1372_" d="M435.323,268.631c-0.114-2.271-1.286-4.357-3.165-5.637c-1.88-1.281-4.25-1.608-6.405-0.881   l-32.77,11.021c1.192-10.634,2.428-27.436,1.455-46.622c-2.189-43.143-14.757-77.542-36.344-99.477   c-2.479-2.519-6.412-2.889-9.317-0.873c-1.057,0.732-22.636,15.799-48.567,40.625V32.442C300.209,14.554,285.656,0,267.767,0   H56.652C38.763,0,24.209,14.554,24.209,32.442v420.295c0,4.012,3.252,7.263,7.263,7.263h261.474c4.011,0,7.263-3.251,7.263-7.263   v-13.448c5.93,0.942,11.961,1.419,18.034,1.419c15.017,0,30.289-2.903,44.884-8.823   C392.557,419.951,441.069,382.871,435.323,268.631z M188.841,445.474h-62.947v-80.379c0-6.408,5.213-11.621,11.621-11.621h39.705   c6.408,0,11.621,5.213,11.621,11.621V445.474z M285.683,445.474h-82.316v-80.379c0-14.418-11.73-26.147-26.147-26.147h-39.705   c-14.418,0-26.147,11.73-26.147,26.147v80.379H38.736V32.442c0-9.879,8.037-17.916,17.916-17.916h211.116   c9.879,0,17.916,8.037,17.916,17.916v148.88c-19.56,20.469-35.307,40.769-47.175,60.783H186.42c-4.011,0-7.263,3.251-7.263,7.263   v58.105c0,4.012,3.252,7.263,7.263,7.263h25.981c-5.093,43.369,8.438,79.938,38.331,103.278   c10.472,8.176,22.344,14.175,34.951,17.951V445.474z M214.815,300.211h-21.132v-43.579h36.873   C223.164,271.346,217.907,285.888,214.815,300.211z M330.151,347.723c2.296,1.938,5.548,2.263,8.181,0.817l35.142-19.297   c-0.06,59.41-25.217,78.861-40.859,85.205c-21.269,8.625-45.954,5.655-62.888-7.566c-16.941-13.227-24.284-34.576-20.678-60.113   c7.248-51.325,62.584-97.446,80.134-110.909c22.985,32.766-0.953,103.191-1.21,103.933   C326.99,342.633,327.855,345.784,330.151,347.723z M357.668,418.424c-2.174,0.882-4.366,1.684-6.569,2.415   c18.817-13.079,39.724-41.682,36.586-104.066c-0.126-2.499-1.529-4.757-3.713-5.977c-2.185-1.218-4.843-1.228-7.037-0.025   l-30.267,16.619c6.796-27.208,15.283-79.697-11.131-106.536c-2.48-2.52-6.412-2.888-9.316-0.873   c-3.346,2.321-82.074,57.628-91.554,124.756c-1.572,11.134-1.364,21.645,0.526,31.316c-8.482-17.841-11.279-39.309-7.92-63.092   c11.521-81.582,102.036-154.136,124.677-171.129c41.171,48.602,25.255,139.681,25.084,140.622   c-0.461,2.529,0.449,5.113,2.393,6.795c1.943,1.681,4.63,2.213,7.068,1.391l34.678-11.663   C423.475,376.676,382.72,408.265,357.668,418.424z" style="fill: rgb(255, 255, 255);"></path>
</g>
<g style="fill: rgb(255, 255, 255);">
</g>
<g style="fill: rgb(255, 255, 255);">
</g>
<g style="fill: rgb(255, 255, 255);">
</g>
<g style="fill: rgb(255, 255, 255);">
</g>
<g style="fill: rgb(255, 255, 255);">
</g>
<g style="fill: rgb(255, 255, 255);">
</g>
<g style="fill: rgb(255, 255, 255);">
</g>
<g style="fill: rgb(255, 255, 255);">
</g>
<g style="fill: rgb(255, 255, 255);">
</g>
<g style="fill: rgb(255, 255, 255);">
</g>
<g style="fill: rgb(255, 255, 255);">
</g>
<g style="fill: rgb(255, 255, 255);">
</g>
<g style="fill: rgb(255, 255, 255);">
</g>
<g style="fill: rgb(255, 255, 255);">
</g>
<g style="fill: rgb(255, 255, 255);">
</g>
</svg>