<svg xmlns="http://www.w3.org/2000/svg" xmlns:xlink="http://www.w3.org/1999/xlink" version="1.1" id="icon" x="0px" y="0px" viewBox="0 0 123.369 123.368" style="enable-background:new 0 0 123.369 123.368;"  xml:space="preserve">
<g style="fill: rgb(255, 255, 255);">
	<g style="fill: rgb(255, 255, 255);">
		<path d="M95.27,108.497c-0.032-0.304-0.052-0.606-0.119-0.909c-0.42-1.929-0.837-3.316-1.36-4.529l-0.063-0.141    c-0.2-0.438-0.399-0.878-0.573-1.318c-0.034-0.082-0.066-0.162-0.098-0.244l-0.198-0.33c-0.034-0.055-0.065-0.111-0.098-0.168    l-0.748-1.35c-0.038-0.066-0.073-0.137-0.109-0.205l-0.138-0.277c-0.043-0.057-0.08-0.106-0.116-0.156l-0.026,15.445    l-18.198-0.028l0.047-25.737l-11.506-0.018v-0.004l-1.214,0.002l-1.217-0.002v0.004L48.13,88.549l-0.054,25.737l-18.199,0.028    l-0.075-45.006l30.949-30.533l17.934,17.692c0.646-1.999,1.508-4.013,2.647-6.063c0.837-1.441,1.66-2.566,2.387-3.56l0.097-0.131    c0.093-0.126,0.188-0.247,0.292-0.364c0.871-1.009,1.664-1.911,2.529-2.766c0.086-0.085,0.174-0.166,0.266-0.245l0.045-0.04    L66.07,22.701c-1.123-1.105-2.562-1.818-4.106-2.085v-0.022c-0.372-0.054-0.744-0.108-1.126-0.108c-0.03,0-0.06,0.009-0.088,0.009    c-0.03,0-0.059-0.009-0.09-0.009c-0.381,0-0.754,0.055-1.127,0.108v0.021c-1.544,0.267-2.982,0.979-4.104,2.085L3.569,73.867    c-2.982,2.941-2.973,7.706,0.02,10.643c1.494,1.463,3.457,2.195,5.415,2.192c1.96-0.003,3.918-0.744,5.409-2.211l5.204-5.134    l0.074,44.011l41.059-0.069l32.988,0.057c0.176-0.652,0.417-1.59,0.681-2.742c0.311-1.413,0.556-2.74,0.736-4.008    c0.074-0.517,0.126-1.043,0.18-1.578l0.074-0.719c0.035-0.498,0.053-1.006,0.072-1.518l0.031-0.764l-0.084-2.258    C95.362,109.342,95.315,108.918,95.27,108.497z" style="fill: rgb(255, 255, 255);"></path>
		<path d="M113.79,84.372c-0.429-0.858-0.895-1.704-1.358-2.558l-0.712-1.273l-0.369-0.629c-0.125-0.217-0.214-0.312-0.324-0.477    c-0.826-1.182-1.697-2.338-2.559-3.498l-1.476-1.912c-0.351-0.463-0.729-0.906-1.097-1.357c-0.341-0.457-0.802-0.88-1.078-1.342    c-0.298-0.457-0.591-0.917-0.913-1.359l-0.964-1.334c-0.249-0.451-0.498-0.9-0.745-1.346c-0.27-0.445-0.537-0.887-0.803-1.324    c-0.235-0.445-0.396-0.888-0.607-1.33c-0.196-0.445-0.424-0.885-0.647-1.328c-0.15-0.449-0.301-0.896-0.447-1.336    c-0.14-0.447-0.353-0.896-0.479-1.347c-0.088-0.45-0.188-0.902-0.313-1.357c-0.47-1.823-0.598-3.686-0.651-5.529    c-0.048-0.931,0.094-1.81,0.088-2.719c0.104-0.907,0.204-1.768,0.298-2.576c0.152-0.838,0.297-1.624,0.43-2.351    c0.174-0.748,0.333-1.437,0.477-2.057c0.331-1.252,0.625-2.281,0.842-2.988c0.218-0.699,0.357-1.101,0.357-1.101    s-0.392,0.088-1.121,0.363c-0.717,0.275-1.745,0.731-2.979,1.473c-0.627,0.363-1.258,0.83-1.981,1.34    c-0.708,0.521-1.39,1.164-2.175,1.846c-0.729,0.72-1.451,1.546-2.229,2.441c-0.689,0.944-1.439,1.958-2.105,3.105    c-1.284,2.306-2.479,5.076-3.023,8.231c-0.15,0.787-0.277,1.595-0.396,2.42c-0.093,0.821-0.071,1.653-0.086,2.504    c-0.001,0.849-0.017,1.722,0.036,2.591c0.113,0.846,0.229,1.706,0.378,2.573c0.158,0.86,0.264,1.769,0.494,2.616    c0.266,0.832,0.532,1.671,0.803,2.515c0.293,0.837,0.577,1.697,0.899,2.531c0.392,0.776,0.782,1.56,1.179,2.343    c0.804,1.571,1.634,3.165,2.683,4.501c0.503,0.697,0.997,1.404,1.521,2.093l0.779,1.034l0.194,0.259l0.099,0.129l0.024,0.033    c-0.668-0.837-0.174-0.217-0.317-0.396l0.04,0.054l0.323,0.438c0.881,1.146,1.753,2.302,2.665,3.42    c0.098,0.131,0.255,0.303,0.305,0.4l0.171,0.305l0.363,0.594c0.253,0.39,0.5,0.781,0.783,1.158c0.137,0.191,0.29,0.367,0.42,0.574    l0.345,0.688c0.252,0.453,0.501,0.903,0.75,1.353l0.401,0.67c0.115,0.226,0.186,0.453,0.283,0.681    c0.177,0.456,0.39,0.903,0.596,1.356c0.778,1.81,1.271,3.646,1.683,5.53c0.212,0.944,0.22,1.886,0.396,2.843    c0.036,0.982,0.072,1.93,0.105,2.842c-0.044,0.931-0.062,1.86-0.128,2.763c-0.097,0.892-0.17,1.774-0.292,2.608    c-0.239,1.67-0.54,3.183-0.819,4.463c-0.581,2.545-1.067,4.14-1.067,4.14s1.62-0.414,4.043-1.951    c1.214-0.765,2.606-1.823,4.076-3.239c0.759-0.693,1.413-1.548,2.197-2.425c0.737-0.903,1.372-1.955,2.115-3.045    c0.643-1.135,1.228-2.383,1.842-3.702c0.469-1.359,0.981-2.802,1.338-4.335c0.666-3.077,0.905-6.522,0.459-10    C116.372,91.135,115.388,87.791,113.79,84.372z" style="fill: rgb(255, 255, 255);"></path>
		<path d="M121.919,39.462c-0.235-2.406-0.824-4.734-1.791-7.126c-0.541-1.167-1.149-2.484-1.749-3.521    c-0.536-0.858-1.106-1.701-1.671-2.549l-0.958-1.385l-0.729-1.008c-0.537-0.656-0.904-1.342-1.319-2.012l-0.643-0.996    l-0.508-1.004l-0.527-0.999c-0.139-0.337-0.275-0.671-0.412-1.003c-0.145-0.335-0.288-0.67-0.431-1.001    c-0.085-0.337-0.188-0.67-0.303-1.005c-0.103-0.336-0.239-0.672-0.321-1.008c-0.058-0.338-0.121-0.674-0.208-1.013    c-0.21-0.68-0.225-1.349-0.33-2.027c-0.15-0.685-0.073-1.338-0.145-2.009c-0.042-1.325,0.055-2.6,0.171-3.78    c0.084-0.597,0.163-1.153,0.236-1.67c0.102-0.53,0.193-1.018,0.277-1.456c0.204-0.879,0.351-1.63,0.5-2.116    C111.204,0.269,111.281,0,111.281,0s-0.271,0.079-0.761,0.31c-0.468,0.24-1.188,0.588-2.009,1.165    c-0.826,0.573-1.764,1.361-2.751,2.4c-0.471,0.531-0.961,1.119-1.447,1.776c-0.445,0.674-0.947,1.393-1.359,2.206    c-0.83,1.616-1.586,3.53-1.943,5.676c-0.104,0.536-0.187,1.086-0.261,1.646c-0.057,0.558-0.051,1.122-0.072,1.701    c-0.015,0.578-0.029,1.168-0.007,1.76c0.072,0.582,0.146,1.169,0.221,1.761c0.087,0.591,0.144,1.206,0.271,1.798    c0.165,0.577,0.331,1.157,0.5,1.74c0.176,0.587,0.354,1.176,0.531,1.769c0.244,0.551,0.491,1.104,0.738,1.658    c0.51,1.106,1.021,2.244,1.706,3.213l1.737,2.651c0.575,0.838,1.147,1.681,1.743,2.501c0.423,0.71,0.676,1.225,1.073,1.825    c0.207,0.263,0.354,0.619,0.509,0.963l0.519,1.011c0.196,0.332,0.337,0.674,0.439,1.019c0.113,0.346,0.269,0.68,0.408,1.02    c0.502,1.364,0.862,2.74,1.119,4.13c0.149,0.694,0.157,1.384,0.277,2.078c0.06,0.691,0.054,1.369,0.105,2.052    c-0.017,0.688-0.032,1.349-0.047,1.976c-0.053,0.653-0.104,1.273-0.15,1.854c-0.135,1.184-0.302,2.255-0.463,3.159    c-0.18,0.891-0.306,1.645-0.438,2.139c-0.126,0.512-0.192,0.783-0.192,0.783s1.093-0.378,2.725-1.549    c0.812-0.589,1.729-1.388,2.699-2.428c0.487-0.518,0.924-1.125,1.438-1.762c0.466-0.656,0.889-1.394,1.368-2.167    c0.396-0.804,0.797-1.665,1.178-2.585c0.302-0.938,0.637-1.929,0.865-2.978C121.979,44.168,122.167,41.84,121.919,39.462z" style="fill: rgb(255, 255, 255);"></path>
		<path d="M84.891,16.059c0.085,0.29,0.167,0.582,0.252,0.875c0.089,0.296,0.178,0.594,0.268,0.893    c0.123,0.277,0.248,0.555,0.373,0.835c0.257,0.557,0.516,1.13,0.858,1.618l0.876,1.335c0.29,0.423,0.578,0.847,0.879,1.26    c0.213,0.357,0.34,0.617,0.54,0.92c0.104,0.132,0.178,0.312,0.256,0.485l0.261,0.509c0.101,0.168,0.17,0.339,0.224,0.514    c0.057,0.174,0.135,0.342,0.205,0.514c0.253,0.688,0.434,1.381,0.562,2.08c0.076,0.35,0.079,0.696,0.141,1.047    c0.029,0.349,0.026,0.69,0.054,1.033c-0.009,0.348-0.016,0.681-0.023,0.995c-0.026,0.33-0.053,0.643-0.076,0.936    c-0.066,0.596-0.15,1.136-0.232,1.592c-0.09,0.447-0.153,0.827-0.221,1.077c-0.062,0.257-0.096,0.394-0.096,0.394    s0.549-0.19,1.372-0.78c0.407-0.296,0.871-0.699,1.358-1.222c0.246-0.262,0.466-0.568,0.724-0.889    c0.236-0.331,0.449-0.701,0.69-1.092c0.199-0.404,0.399-0.838,0.593-1.303c0.152-0.472,0.319-0.971,0.437-1.499    c0.214-1.061,0.31-2.232,0.186-3.43c-0.119-1.213-0.417-2.387-0.903-3.591c-0.271-0.588-0.578-1.252-0.881-1.773    c-0.271-0.433-0.558-0.857-0.842-1.284l-0.482-0.697l-0.367-0.509c-0.271-0.33-0.455-0.677-0.664-1.014l-0.322-0.501l-0.258-0.505    l-0.265-0.504c-0.07-0.17-0.14-0.339-0.207-0.506c-0.073-0.168-0.146-0.337-0.219-0.504c-0.043-0.17-0.095-0.337-0.151-0.507    c-0.052-0.169-0.122-0.338-0.162-0.508c-0.027-0.169-0.062-0.339-0.104-0.51c-0.106-0.343-0.113-0.68-0.167-1.021    c-0.076-0.346-0.036-0.674-0.072-1.012c-0.021-0.669,0.026-1.311,0.086-1.906c0.043-0.299,0.083-0.58,0.118-0.841    c0.052-0.267,0.099-0.512,0.142-0.733c0.103-0.442,0.178-0.821,0.251-1.065c0.071-0.254,0.112-0.39,0.112-0.39    s-0.137,0.039-0.385,0.154c-0.235,0.122-0.599,0.297-1.012,0.589c-0.416,0.288-0.889,0.685-1.386,1.208    c-0.236,0.268-0.483,0.564-0.729,0.895c-0.226,0.34-0.479,0.702-0.687,1.111c-0.417,0.815-0.799,1.779-0.979,2.86    c-0.053,0.269-0.093,0.547-0.131,0.828c-0.028,0.282-0.025,0.566-0.036,0.857c-0.007,0.292-0.016,0.589-0.003,0.887    c0.036,0.293,0.073,0.59,0.11,0.888C84.797,15.45,84.827,15.759,84.891,16.059z" style="fill: rgb(255, 255, 255);"></path>
	</g>
</g>
<g style="fill: rgb(255, 255, 255);">
</g>
<g style="fill: rgb(255, 255, 255);">
</g>
<g style="fill: rgb(255, 255, 255);">
</g>
<g style="fill: rgb(255, 255, 255);">
</g>
<g style="fill: rgb(255, 255, 255);">
</g>
<g style="fill: rgb(255, 255, 255);">
</g>
<g style="fill: rgb(255, 255, 255);">
</g>
<g style="fill: rgb(255, 255, 255);">
</g>
<g style="fill: rgb(255, 255, 255);">
</g>
<g style="fill: rgb(255, 255, 255);">
</g>
<g style="fill: rgb(255, 255, 255);">
</g>
<g style="fill: rgb(255, 255, 255);">
</g>
<g style="fill: rgb(255, 255, 255);">
</g>
<g style="fill: rgb(255, 255, 255);">
</g>
<g style="fill: rgb(255, 255, 255);">
</g>
</svg>