<svg xmlns="http://www.w3.org/2000/svg" xmlns:xlink="http://www.w3.org/1999/xlink" version="1.1" viewBox="0 0 512 512" enable-background="new 0 0 512 512" >
    <g style="fill: rgb(255, 255, 255);">
        <g style="fill: rgb(255, 255, 255);">
            <path d="m51.5,398.5c1.1-5.9 12.7-14.6 35.4-19.7 51.1-11.5 104.1-8.1 160.3-4.6 23.1,1.5 89.4,7.8 137-2.3 38.9-8.3 69.9-31.7 97.4-51.3 9.2-6.6 11.3-19.3 4.7-28.5-6.6-9.2-19.3-11.3-28.5-4.8-7.4,5.3-14.9,10.6-22.5,15.7v-73h45.4c9.1,0 17.1-6 19.6-14.7 2.5-8.7-1-18-8.6-22.9l-224.7-143.7c-6.7-4.3-15.3-4.3-22-1.42109e-14l-224.6,143.7c-7.6,4.9-11.1,14.2-8.6,22.9 2.6,8.7 10.6,14.7 19.6,14.7h45.4v109.3c-37.5,8.7-60.7,27-65.4,51.6-2.1,11.1 5.2,21.6 16.2,23.9 12.1,2.4 22-6.5 23.9-16.3zm342.9-72.8c-6.5,2.7-13.1,4.8-20,6.6-34.3,8.7-102.1,2.7-124.7,1.3-43.4-2.7-88-5.6-132.1-0.9v-102.7h276.8v95.7zm-138.4-235.5l154.8,99h-309.6l154.8-99z" style="fill: rgb(255, 255, 255);"></path>
            <path d="m497.2,378c-6.6-9.2-19.3-11.3-28.5-4.8-25.7,18.4-53.2,34.4-83.3,44.9-23.6,8.2-102.1,2.7-124.7,1.3-56.5-3.6-115-7.3-171.9,5.5-38.1,8.6-61.7,27-66.5,51.8-2.1,11.1 5.2,21.6 16.2,23.9 11.5,2.4 21.5-5.4 23.9-16.2 1.3-5.9 12.7-14.6 35.3-19.7 51.2-11.5 104.2-8.1 160.3-4.6 23.1,1.5 104.1,7.3 136.9-2.3 41.8-12.3 69.9-31.7 97.4-51.3 9.3-6.6 11.4-19.3 4.9-28.5z" style="fill: rgb(255, 255, 255);"></path>
            <path d="M66.3,116.2c11.3,0,20.4-9.1,20.4-20.4V75.4c0-11.3-9.1-20.4-20.4-20.4s-20.4,9.1-20.4,20.4v20.4    C45.9,107,55,116.2,66.3,116.2z" style="fill: rgb(255, 255, 255);"></path>
            <path d="m159.7,72.2c11.3,0 20.4-9.1 20.4-20.4v-20.4c0-11.3-9.1-20.4-20.4-20.4s-20.4,9.1-20.4,20.4v20.4c-0.1,11.3 9.1,20.4 20.4,20.4z" style="fill: rgb(255, 255, 255);"></path>
            <path d="m349.8,72.2c11.3,0 20.4-9.1 20.4-20.4v-20.4c0-11.3-9.1-20.4-20.4-20.4-11.3,0-20.4,9.1-20.4,20.4v20.4c-5.68434e-14,11.3 9.1,20.4 20.4,20.4z" style="fill: rgb(255, 255, 255);"></path>
            <path d="m437.8,116.2c11.3,0 20.4-9.1 20.4-20.4v-20.4c0-11.3-9.1-20.4-20.4-20.4s-20.4,9.1-20.4,20.4v20.4c-5.68434e-14,11.2 9.2,20.4 20.4,20.4z" style="fill: rgb(255, 255, 255);"></path>
        </g>
    </g>
</svg>