<?xml version="1.0" standalone="no"?>
<!DOCTYPE svg PUBLIC "-//W3C//DTD SVG 20010904//EN"
 "http://www.w3.org/TR/2001/REC-SVG-20010904/DTD/svg10.dtd">
<svg version="1.0" xmlns="http://www.w3.org/2000/svg"
 width="250.000000pt" height="250.000000pt" viewBox="0 0 250.000000 250.000000"
 preserveAspectRatio="xMidYMid meet">
<metadata>
Created by potrace 1.10, written by Peter Selinger 2001-2011
</metadata>
<g transform="translate(0.000000,250.000000) scale(0.050000,-0.050000)"
stroke="none">
<path d="M480 4986 c-27 -5 -59 -19 -70 -31 -14 -14 -9 -17 17 -8 20 7 58 13
85 13 26 0 48 9 48 20 0 11 -7 19 -15 17 -8 -1 -37 -6 -65 -11z"/>
<path d="M1543 4985 c536 -3 1418 -3 1960 0 543 3 105 5 -973 5 -1078 0 -1522
-2 -987 -5z"/>
<path d="M4728 4983 c12 -19 168 -14 187 6 7 6 -35 11 -93 11 -57 0 -100 -8
-94 -17z"/>
<path d="M1928 4712 c-5 -13 -7 -44 -4 -70 6 -46 5 -46 -209 -43 -205 3 -215
1 -215 -38 0 -39 11 -41 221 -41 l221 0 -6 -75 -6 -75 -125 7 c-117 6 -125 4
-125 -37 0 -40 9 -42 125 -38 l125 6 6 -74 6 -74 -131 0 c-119 0 -131 -4 -131
-41 0 -38 10 -41 125 -37 l125 6 6 -74 6 -74 -131 0 c-119 0 -131 -4 -131 -41
0 -38 10 -41 125 -37 l125 6 6 -74 6 -74 -131 0 c-111 0 -131 -5 -131 -35 0
-30 19 -35 125 -35 l125 0 0 -70 0 -70 -210 0 c-181 -1 -211 -6 -216 -35 -6
-30 19 -34 210 -39 l216 -6 6 -77 7 -77 -132 7 c-126 7 -131 5 -131 -40 0 -44
6 -46 125 -40 l125 7 6 -75 6 -75 -131 0 c-103 0 -131 -6 -131 -30 0 -24 28
-30 131 -30 l131 0 -6 -74 -6 -74 -125 6 c-115 4 -125 1 -125 -37 0 -37 12
-41 131 -41 l131 0 -6 -74 -6 -74 -125 6 c-117 5 -125 2 -125 -39 0 -42 6 -44
130 -34 l130 10 0 -77 0 -78 -220 0 c-209 0 -220 -2 -220 -42 0 -39 9 -41 215
-36 275 7 293 -22 116 -192 -491 -472 -176 -1240 509 -1240 711 0 1043 915
465 1280 l-63 40 -1 1243 -1 1242 -45 12 c-87 23 -758 9 -767 -15z m692 -842
l0 -790 -290 0 -290 0 0 790 0 790 290 0 290 0 0 -790z m-625 455 c-5 -41 -8
-7 -8 75 0 83 3 116 8 75 4 -41 4 -109 0 -150z m23 -1610 c10 -462 8 -548 -17
-563 -549 -345 -320 -1141 329 -1141 592 0 839 853 325 1121 l-55 29 4 455 5
454 10 -423 11 -422 104 -82 c387 -306 289 -972 -168 -1143 -689 -258 -1238
638 -675 1102 l93 77 -3 555 c-2 305 4 548 12 540 8 -8 19 -260 25 -559z m677
-270 c-4 -118 -7 -21 -7 215 0 237 3 333 7 215 3 -118 3 -312 0 -430z m-455
104 l0 -471 -70 -29 c-202 -84 -302 -258 -285 -494 10 -138 86 -355 136 -386
11 -6 19 -22 19 -34 0 -13 -37 12 -82 56 -99 95 -179 253 -175 349 l2 70 15
-70 c12 -57 15 -45 18 70 2 91 17 170 42 227 46 102 48 110 17 91 -15 -9 -18
-5 -9 9 8 13 23 19 32 13 10 -6 27 6 39 28 11 21 66 68 121 104 l100 65 0 436
c0 424 1 437 40 437 39 0 40 -13 40 -471z m-105 -144 c-4 -96 -7 -17 -7 175 0
193 3 271 7 175 4 -96 4 -254 0 -350z m369 -240 c23 -41 52 -94 64 -117 13
-22 34 -37 48 -33 14 5 23 1 20 -9 -3 -10 20 -42 51 -72 40 -36 55 -66 47 -94
-12 -47 -7 -50 32 -11 24 24 28 -1 29 -192 0 -187 -4 -218 -29 -208 -21 8 -27
2 -19 -19 7 -16 2 -30 -9 -30 -12 0 -15 -18 -8 -40 10 -31 4 -40 -29 -40 -23
0 -47 -13 -54 -30 -46 -121 -454 -117 -562 6 -48 53 -57 74 -26 55 11 -7 15
14 10 53 -16 112 -20 293 -6 284 7 -4 9 8 4 28 -6 23 17 60 64 105 301 283
307 296 313 758 l5 311 6 -315 c5 -279 11 -324 49 -390z"/>
<path d="M3443 3953 c-39 -49 -180 -346 -193 -408 -45 -218 242 -408 386 -255
19 20 22 29 7 21 -19 -12 -18 0 5 46 18 33 33 82 34 107 2 45 2 45 16 -4 14
-49 15 -48 28 15 34 167 -207 573 -283 478z m-119 -398 c-6 -107 0 -136 44
-200 60 -89 21 -108 -47 -22 -45 58 -56 205 -21 296 28 74 31 65 24 -74z"/>
<path d="M3706 3322 c-212 -395 -142 -659 169 -636 287 21 336 278 127 663
-134 246 -150 245 -296 -27z m-46 -221 c-27 -145 -29 -139 49 -256 60 -91 64
-105 31 -105 -104 0 -162 195 -110 371 40 139 57 133 30 -10z"/>
<path d="M1201 3341 c-1161 -1181 -325 -3146 1339 -3146 1311 0 2187 1204
1786 2455 -59 184 -62 189 -87 149 -12 -20 -18 -21 -19 -4 0 40 -36 29 -50
-15 -7 -22 -34 -66 -60 -97 l-48 -56 42 -129 c65 -198 74 -617 18 -840 -305
-1224 -1773 -1670 -2675 -813 -635 604 -697 1551 -148 2242 67 84 130 153 140
153 10 0 21 62 24 138 10 200 -37 193 -262 -37z"/>
<path d="M3036 3234 c-253 -460 -173 -795 179 -746 266 36 340 284 182 613
-71 145 -170 298 -117 179 21 -47 20 -48 -8 -12 -17 21 -26 45 -20 55 12 20
-31 105 -47 89 -6 -6 -22 -3 -34 7 -16 14 -56 -42 -135 -185z m-56 -213 c-22
-79 -31 -187 -17 -211 7 -11 22 -53 35 -93 13 -40 45 -96 72 -125 41 -45 43
-78 2 -37 -8 8 -29 15 -47 15 -96 0 -145 276 -78 436 37 89 57 98 33 15z m221
-21 c5 50 35 -64 37 -144 5 -185 -63 -217 -90 -41 -16 108 9 255 33 195 11
-28 17 -31 20 -10z"/>
</g>
</svg>
