<?xml version="1.0" standalone="no"?>
<!DOCTYPE svg PUBLIC "-//W3C//DTD SVG 20010904//EN"
 "http://www.w3.org/TR/2001/REC-SVG-20010904/DTD/svg10.dtd">
<svg version="1.0" xmlns="http://www.w3.org/2000/svg"
 width="199.000000pt" height="200.000000pt" viewBox="0 0 199.000000 200.000000"
 preserveAspectRatio="xMidYMid meet">
<metadata>
Created by potrace 1.13, written by Peter Selinger 2001-2015
</metadata>
<g transform="translate(0.000000,200.000000) scale(0.100000,-0.100000)"
stroke="none">
<path d="M857 1753 c-4 -3 -7 -25 -7 -47 l0 -40 -43 42 -43 42 -34 -35 -34
-35 77 -78 77 -77 0 -88 0 -87 50 0 50 0 0 88 0 87 80 80 80 79 -32 33 -32 33
-48 -47 -48 -47 0 52 0 52 -43 0 c-24 0 -47 -3 -50 -7z"/>
<path d="M570 1603 l0 -67 -35 34 -35 34 -35 -34 -35 -34 32 -33 32 -33 -62 0
-62 0 0 -50 0 -50 117 0 117 0 58 -57 58 -57 32 32 33 32 -63 63 -62 63 0 112
0 112 -45 0 -45 0 0 -67z"/>
<path d="M1147 1663 c-4 -3 -7 -55 -7 -115 l0 -109 -61 -57 -61 -58 35 -35 36
-36 35 36 36 37 0 112 c0 121 15 173 59 200 12 7 21 17 21 22 0 11 -83 14 -93
3z"/>
<path d="M1295 1616 c-80 -49 -80 -46 -83 -441 l-3 -350 -44 -44 c-68 -67 -89
-120 -90 -221 0 -100 21 -154 86 -219 58 -57 120 -85 204 -89 132 -7 238 55
296 174 27 54 32 76 32 134 0 58 -5 80 -32 134 -19 39 -49 80 -74 101 l-42 36
-5 354 c-5 337 -6 355 -26 381 -35 47 -70 67 -126 71 -43 3 -60 -1 -93 -21z
m130 -121 l25 -24 0 -369 0 -370 31 -12 c53 -22 83 -73 87 -149 3 -59 0 -71
-26 -112 -107 -166 -366 -78 -350 118 5 61 27 96 81 132 l37 24 0 369 0 369
25 24 c13 14 34 25 45 25 12 0 32 -11 45 -25z"/>
<path d="M1350 1480 c-19 -19 -20 -33 -20 -210 l0 -190 50 0 50 0 0 190 c0
177 -1 191 -20 210 -11 11 -24 20 -30 20 -5 0 -19 -9 -30 -20z"/>
<path d="M322 1307 l-32 -33 41 -39 40 -40 -43 -5 -43 -5 -3 -47 -3 -48 53 0
52 0 -47 -48 -47 -48 33 -32 33 -32 79 80 80 80 87 0 88 0 0 50 0 50 -88 0
-88 0 -74 75 c-41 41 -77 75 -80 75 -3 0 -20 -15 -38 -33z"/>
<path d="M865 1301 c-123 -30 -170 -174 -88 -272 118 -140 347 -4 282 168 -28
75 -118 122 -194 104z"/>
<path d="M655 960 l-59 -60 -113 0 -113 0 0 -45 0 -45 44 0 c74 0 82 -8 47
-44 l-31 -32 33 -32 33 -32 29 30 c16 16 32 30 37 30 4 0 8 -27 8 -60 l0 -60
45 0 45 0 0 107 0 107 62 63 61 62 -29 35 c-16 19 -31 35 -34 35 -3 1 -32 -26
-65 -59z"/>
<path d="M854 921 c-2 -2 -4 -43 -4 -90 l0 -86 -77 -77 -78 -78 33 -32 32 -32
45 44 45 44 0 -47 0 -47 50 0 50 0 0 47 0 47 30 -29 c16 -16 32 -27 34 -24 2
2 6 30 8 61 4 56 3 58 -34 95 l-38 37 0 86 0 85 -46 0 c-25 0 -48 -2 -50 -4z"/>
</g>
</svg>
