<?xml version="1.0" encoding="utf-8"?>
<!-- Svg Vector Icons : http://www.onlinewebfonts.com/icon -->
<!DOCTYPE svg PUBLIC "-//W3C//DTD SVG 1.1//EN" "http://www.w3.org/Graphics/SVG/1.1/DTD/svg11.dtd">
<svg version="1.1" xmlns="http://www.w3.org/2000/svg" xmlns:xlink="http://www.w3.org/1999/xlink" x="0px" y="0px" viewBox="0 0 1000 1000" enable-background="new 0 0 1000 1000" xml:space="preserve">
<metadata> Svg Vector Icons : http://www.onlinewebfonts.com/icon </metadata>
<g><g transform="translate(0.000000,472.000000) scale(0.100000,-0.100000)"><path d="M4828.5,4229.2c-84.4-21.1-118.9-61.4-354.9-418.2c-638.8-957.2-1035.8-2050.6-1181.6-3251.4c-44.1-349.1-49.9-1256.4-11.5-1601.7c107.4-966.8,374.1-1854.9,809.5-2687.4c212.9-410.5,565.9-955.3,659.9-1024.3c111.3-80.6,241.7-49.9,291.6,69c38.4,94,17.3,151.6-140,372.1c-163.1,228.3-349.1,540.9-504.5,845.9c-1010.9,1993.1-1010.9,4371.7,0,6364.7c153.5,303.1,339.5,615.8,502.6,844c155.4,218.7,180.3,272.4,157.3,351c-11.5,36.4-44.1,80.6-82.5,105.5C4909,4242.7,4895.6,4246.5,4828.5,4229.2z"/><path d="M100-284.4v-3932.4h191.8h191.8v1406.1v1404.2l149.6,74.8C921-1184,1168.5-873.3,1241.4-570.2c36.4,157.3,36.4,414.4,0,571.6C1168.5,304.5,921,615.3,633.3,763l-149.6,74.8v1406.1V3648H291.8H100V-284.4z"/><path d="M6013.9,3498.4c-67.1-21.1-101.7-57.5-260.9-274.3c-565.9-776.9-932.3-1690-1081.9-2693.2c-49.9-329.9-49.9-1300.6,0-1630.5c149.6-999.4,517.9-1920.2,1078.1-2683.6c184.1-253.2,218.7-283.9,316.5-287.7c69.1-1.9,88.2,7.7,138.1,63.3c88.2,97.8,71,166.9-107.4,410.5c-422,579.3-725.1,1218.1-901.6,1897.1C4769-63.8,5097,1656.9,6096.4,3028.4c176.5,241.7,195.7,312.7,111.3,404.7C6148.2,3496.5,6083,3519.5,6013.9,3498.4z"/><path d="M7139.9,2715.7c-97.8-63.3-425.9-521.8-596.6-838.3c-362.6-663.7-539-1375.4-539-2161.9c0-928.4,249.4-1764.8,753.9-2516.7c134.3-197.6,312.7-429.7,372.1-479.6c84.4-71,235.9-34.5,285.8,71c46,94,32.6,134.3-103.6,310.8c-617.7,798-920.8,1659.3-920.8,2614.6c0,936.1,314.6,1845.4,886.2,2566.6c61.4,78.6,124.7,166.9,140,195.7c32.6,63.3,21.1,143.9-26.9,209.1C7347.1,2744.5,7209,2761.8,7139.9,2715.7z"/><path d="M8248.7,1869.8C7959,1593.6,7679,1139,7537,711.2c-335.7-1001.3-159.2-2050.6,487.2-2894.6c157.3-207.2,305-345.3,387.5-364.5c161.1-36.4,285.8,149.6,191.8,287.7c-17.3,26.8-86.3,107.4-155.4,180.3c-709.7,775-884.3,1981.6-423.9,2944.5c117,247.5,264.7,471.9,423.9,646.5c69.1,72.9,138.1,153.5,155.4,180.3c84.4,124.7-5.8,287.7-159.2,287.7C8373.4,1979.1,8352.3,1967.6,8248.7,1869.8z"/><path d="M9616.4,1163.9c-189.9-84.4-504.5-377.9-633-590.8c-262.8-441.2-306.9-1003.3-115.1-1477c88.2-218.7,172.6-341.5,372.1-541c293.5-293.5,487.2-376,600.4-253.2c107.4,117,69.1,230.2-118.9,356.8c-364.5,245.6-585.1,646.5-585.1,1057c0,410.5,220.6,811.4,585.1,1057c95.9,63.3,143.9,109.3,159.2,151.5C9938.7,1094.8,9783.3,1236.8,9616.4,1163.9z"/></g></g>
</svg>