<?xml version="1.0" encoding="utf-8"?>
<!-- Svg Vector Icons : http://www.onlinewebfonts.com/icon -->
<!DOCTYPE svg PUBLIC "-//W3C//DTD SVG 1.1//EN" "http://www.w3.org/Graphics/SVG/1.1/DTD/svg11.dtd">
<svg version="1.1" xmlns="http://www.w3.org/2000/svg" xmlns:xlink="http://www.w3.org/1999/xlink" x="0px" y="0px" viewBox="0 0 1000 1000" enable-background="new 0 0 1000 1000" xml:space="preserve">
<metadata> Svg Vector Icons : http://www.onlinewebfonts.com/icon </metadata>
<g><g transform="translate(0.000000,512.000000) scale(0.100000,-0.100000)"><path d="M3106.7,5045.2c-272.8-73.5-505-299.9-592.1-574.7c-32.9-108.3-34.8-203.2-34.8-1342.8V1901H1289.9H100v-193.5v-193.5l1186.1-3.9l1184.1-5.8V121v-1383.4l-1184.1-5.8L100-1272.1v-193.5v-193.5h1189.9h1189.9v-1226.7c0-1139.6,1.9-1234.4,34.8-1342.8c90.9-288.3,344.4-522.4,632.7-584.3c61.9-13.5,367.6-19.3,847.5-15.5l748.8,5.8l52.2,54.2l54.2,52.2V121v4837.1l-54.2,52.2l-52.2,54.2l-770.1,3.9C3368,5072.3,3184.1,5066.5,3106.7,5045.2z M4453.4,121v-4546.9h-613.4c-686.9,0-704.3,3.9-832,137.4c-131.6,139.3-121.9-230.2-121.9,4409.5s-9.7,4270.2,121.9,4409.5c127.7,133.5,145.1,137.4,832,137.4h613.4V121z"/><path d="M8131.5,1680.5c-60-32.9-96.7-102.6-98.7-185.7c0-61.9,38.7-104.5,541.8-609.5c298-298,541.8-549.5,541.8-557.2c0-7.7-826.2-13.5-1838.1-13.5H5440.2V121V-72.5h1838.1c1011.9,0,1838.1-5.8,1838.1-13.5c0-7.8-243.8-259.3-541.8-557.2c-479.8-481.8-541.8-549.5-541.8-603.7c0-34.8,9.7-83.2,21.3-110.3c21.3-46.4,121.9-108.3,176.1-108.3c69.6,0,253.5,166.4,934.5,849.4L9900,121l-735.2,737.2c-404.4,406.3-773.9,762.3-820.4,793.3C8249.6,1713.4,8201.2,1719.2,8131.5,1680.5z"/></g></g>
</svg>