<?xml version="1.0" encoding="utf-8"?>
<!-- Svg Vector Icons : http://www.onlinewebfonts.com/icon -->
<!DOCTYPE svg PUBLIC "-//W3C//DTD SVG 1.1//EN" "http://www.w3.org/Graphics/SVG/1.1/DTD/svg11.dtd">
<svg version="1.1" xmlns="http://www.w3.org/2000/svg" xmlns:xlink="http://www.w3.org/1999/xlink" x="0px" y="0px" viewBox="0 0 1000 1000" enable-background="new 0 0 1000 1000" xml:space="preserve">
<metadata> Svg Vector Icons : http://www.onlinewebfonts.com/icon </metadata>
<g><g transform="translate(0.000000,512.000000) scale(0.100000,-0.100000)"><path d="M5266,5057.6c-21.3-9.7-56.1-36.8-77.4-60c-38.7-42.6-38.7-69.7-38.7-4885.5v-4842.9l48.4-50.3l46.4-52.2l843.6,5.8c841.7,5.8,841.7,5.8,934.5,52.2c220.6,108.3,390.8,303.8,462.4,528.2c32.9,108.3,34.8,203.1,34.8,1352.4v1236.4h1189.9H9900v193.5v193.5l-1184.1,3.9l-1186.1,5.8V121.8v1383.4l1186.1,5.8l1184.1,3.9v193.5v193.5H8710.1H7520.1v1226.7c0,1139.6-1.9,1234.4-34.8,1342.8c-87.1,278.6-321.2,503.1-601.7,574.7c-85.1,23.2-259.3,29-843.6,27.1C5635.6,5073,5287.3,5065.3,5266,5057.6z M6839.1,4637.7c94.8-38.7,193.5-135.4,238-230.2c34.8-75.5,36.8-228.3,36.8-4291.5c0-4655.3,9.7-4283.8-121.9-4423.1c-127.7-133.5-145.1-137.4-830.1-137.4h-615.3V112.1v4556.6h609.5C6664.9,4668.7,6779.1,4662.9,6839.1,4637.7z"/><path d="M1655.6,1652.2c-46.4-31-416-387-820.4-793.3L100,121.8l735.2-737.2c702.3-704.3,862.9-849.4,942.3-849.4c104.5,0,189.6,96.7,189.6,218.6c0,54.2-61.9,121.9-541.8,603.7c-298,298-541.8,549.5-541.8,557.2c0,7.8,828.1,13.6,1838.1,13.6h1838.1v193.5v193.5H2721.7c-1010,0-1838.1,5.8-1838.1,13.5c0,7.7,243.8,259.3,541.8,557.2c479.8,481.8,541.8,549.5,541.8,603.7c0,90.9-36.8,154.8-106.4,189.6C1773.6,1719.9,1756.2,1716.1,1655.6,1652.2z"/></g></g>
</svg>