<?xml version="1.0" standalone="no"?>
<!DOCTYPE svg PUBLIC "-//W3C//DTD SVG 20010904//EN"
 "http://www.w3.org/TR/2001/REC-SVG-20010904/DTD/svg10.dtd">
<svg version="1.0" xmlns="http://www.w3.org/2000/svg"
 width="600.000000pt" height="600.000000pt" viewBox="0 0 600.000000 600.000000"
 preserveAspectRatio="xMidYMid meet">
<metadata>
Created by potrace 1.10, written by Peter Selinger 2001-2011
</metadata>
<g transform="translate(0.000000,600.000000) scale(0.100000,-0.100000)"
stroke="none">
<path d="M2929 5673 c-55 -34 -59 -52 -59 -283 0 -232 4 -250 60 -284 56 -32
130 -12 164 44 24 41 24 439 0 480 -34 56 -111 77 -165 43z"/>
<path d="M1893 5240 c-36 -21 -63 -66 -63 -103 0 -37 34 -80 174 -220 164
-164 183 -174 254 -138 36 18 72 72 72 107 0 33 -35 78 -157 200 -182 182
-210 197 -280 154z"/>
<path d="M3981 5247 c-33 -16 -298 -282 -316 -317 -19 -37 -19 -51 2 -96 17
-35 74 -74 109 -74 32 0 79 37 202 160 179 178 195 207 152 277 -33 55 -95 76
-149 50z"/>
<path d="M2820 4893 c-263 -61 -483 -234 -587 -463 -78 -170 -77 -164 -83
-770 l-5 -545 -80 -5 c-148 -9 -155 -23 -155 -300 0 -308 -15 -293 305 -300
l230 -5 5 -1070 c5 -1162 2 -1094 61 -1129 52 -31 126 -13 160 38 12 18 15
190 19 1091 l5 1070 295 0 295 0 5 -710 c4 -590 7 -714 19 -731 34 -51 108
-69 160 -38 58 34 56 -1 61 769 l5 710 230 5 c320 7 305 -8 305 300 0 277 -7
291 -155 300 l-80 5 -5 545 c-5 560 -6 574 -47 685 -107 288 -329 482 -629
549 -89 20 -247 20 -334 -1z m315 -242 c114 -31 192 -76 276 -160 85 -85 129
-162 160 -278 18 -68 19 -106 17 -585 l-3 -513 -595 0 -595 0 -3 513 c-2 479
-1 517 17 586 18 67 26 90 53 136 4 8 13 26 18 39 6 13 46 59 89 102 43 43 89
83 102 89 13 5 31 14 39 18 46 26 69 36 129 52 88 24 208 24 296 1z m690
-1841 l0 -55 -835 0 -835 0 -3 44 c-2 24 -1 50 2 57 5 12 134 14 838 12 l833
-3 0 -55z"/>
<path d="M2860 4533 c-94 -33 -137 -60 -205 -128 -152 -152 -195 -374 -85
-439 81 -47 180 14 180 112 0 50 32 122 71 161 39 39 111 71 161 71 48 0 89
23 112 60 32 56 12 130 -44 164 -36 20 -129 20 -190 -1z"/>
<path d="M1459 4203 c-78 -48 -77 -160 1 -207 41 -24 439 -24 480 0 79 47 79
161 0 208 -41 24 -442 23 -481 -1z"/>
<path d="M4039 4203 c-78 -48 -77 -160 1 -207 41 -24 439 -24 480 0 79 47 79
161 0 208 -41 24 -442 23 -481 -1z"/>
</g>
</svg>
