<?xml version="1.0" standalone="no"?>
<!DOCTYPE svg PUBLIC "-//W3C//DTD SVG 20010904//EN"
 "http://www.w3.org/TR/2001/REC-SVG-20010904/DTD/svg10.dtd">
<svg version="1.0" xmlns="http://www.w3.org/2000/svg"
 width="200.000000pt" height="200.000000pt" viewBox="0 0 200.000000 200.000000"
 preserveAspectRatio="xMidYMid meet">
<metadata>
Created by potrace 1.13, written by Peter Selinger 2001-2015
</metadata>
<g transform="translate(0.000000,200.000000) scale(0.100000,-0.100000)" stroke="none">
<path d="M1010 1755 c-9 -11 -9 -31 4 -92 46 -229 218 -402 445 -448 85 -18
114 -13 109 18 -2 17 -13 24 -48 30 -144 26 -237 73 -323 163 -60 63 -113 170
-127 258 -6 38 -13 73 -16 78 -8 13 -30 9 -44 -7z"/>
<path d="M1345 1760 c-13 -20 7 -89 36 -130 35 -49 78 -76 132 -85 48 -9 79
13 57 39 -7 9 -21 16 -32 16 -10 0 -37 9 -58 20 -40 21 -68 61 -80 115 -6 31
-41 47 -55 25z"/>
<path d="M1183 1744 c-10 -26 6 -107 33 -161 52 -106 166 -188 278 -200 46 -5
57 -3 62 11 9 24 -14 46 -50 46 -43 0 -144 51 -183 91 -39 42 -83 133 -83 175
0 46 -42 75 -57 38z"/>
<path d="M689 1367 c-22 -15 -39 -38 -49 -65 -28 -81 21 -157 109 -169 49 -7
47 -11 -9 -24 -65 -15 -117 4 -171 62 -54 56 -91 69 -137 45 -39 -20 -54 -62
-37 -102 17 -41 116 -131 172 -157 38 -17 67 -22 139 -22 l92 0 55 -102 55
-102 -42 -25 c-22 -13 -65 -43 -95 -67 -49 -39 -61 -58 -118 -176 -35 -73 -63
-142 -63 -153 0 -32 53 -80 87 -80 48 0 73 28 130 146 60 124 87 152 205 210
l57 28 44 -41 c74 -68 120 -88 207 -88 62 1 84 5 127 28 58 30 73 50 73 97 0
22 -9 41 -30 62 -26 25 -36 29 -68 25 -20 -2 -51 -10 -68 -17 -75 -32 -120 10
-222 205 -45 86 -82 158 -82 160 0 10 72 5 93 -6 12 -7 45 -34 74 -60 38 -36
60 -49 82 -49 41 0 91 44 91 79 0 56 -90 149 -187 194 -38 17 -66 22 -134 22
-78 0 -92 -3 -155 -35 l-70 -35 23 34 c79 115 -62 256 -178 178z m135 -43 c56
-56 17 -154 -61 -154 -46 0 -93 45 -93 90 0 22 9 41 29 61 39 38 88 40 125 3z
m-279 -184 c36 -36 64 -55 100 -65 74 -23 102 -15 300 87 56 29 158 35 224 13
59 -19 167 -112 177 -151 8 -31 -11 -54 -46 -54 -19 0 -35 11 -58 39 -46 57
-109 84 -182 79 -33 -2 -62 -7 -66 -11 -3 -3 25 -64 62 -134 38 -71 80 -150
93 -176 13 -26 43 -65 66 -86 54 -50 99 -60 160 -36 59 22 87 17 99 -18 13
-36 1 -56 -50 -82 -53 -27 -154 -27 -208 -1 -21 11 -60 41 -87 68 l-49 49 -72
-34 c-136 -63 -167 -95 -237 -234 -53 -107 -64 -123 -85 -123 -27 0 -56 24
-56 46 0 7 28 69 61 137 56 113 66 126 123 168 33 26 80 57 103 70 l41 23 -20
41 c-11 22 -43 81 -70 132 l-51 92 -87 -6 c-79 -5 -92 -3 -142 19 -63 29 -132
88 -154 131 -14 26 -14 31 2 48 28 31 56 23 109 -31z"/>
</g>
</svg>
