<?xml version="1.0" standalone="no"?>
<!DOCTYPE svg PUBLIC "-//W3C//DTD SVG 20010904//EN"
 "http://www.w3.org/TR/2001/REC-SVG-20010904/DTD/svg10.dtd">
<svg version="1.0" xmlns="http://www.w3.org/2000/svg"
 width="760.000000pt" height="760.000000pt" viewBox="0 0 760.000000 760.000000"
 preserveAspectRatio="xMidYMid meet">
<metadata>
Created by potrace 1.13, written by Peter Selinger 2001-2015
</metadata>
<g transform="translate(0.000000,760.000000) scale(0.100000,-0.100000)"
stroke="none">
<path d="M3655 5834 c-16 -2 -73 -9 -125 -15 -205 -24 -488 -114 -680 -216
-356 -191 -654 -487 -848 -843 -97 -179 -185 -444 -219 -663 -23 -152 -23
-442 0 -592 140 -897 825 -1582 1722 -1722 149 -23 441 -23 590 0 897 140
1582 825 1722 1722 23 150 23 440 0 592 -34 219 -122 484 -219 663 -310 568
-861 957 -1494 1055 -97 15 -389 28 -449 19z m326 -174 c587 -60 1099 -380
1411 -883 286 -459 354 -1047 182 -1566 -101 -304 -304 -610 -541 -816 -677
-587 -1660 -619 -2370 -77 -109 83 -198 167 -280 264 -748 880 -541 2201 440
2810 339 211 758 308 1158 268z"/>
<path d="M3971 5161 c-35 -35 -22 -70 37 -98 52 -24 123 -98 152 -158 22 -44
25 -63 25 -162 0 -126 11 -151 59 -139 35 9 47 36 53 125 12 166 -66 321 -205
410 -67 42 -96 47 -121 22z"/>
<path d="M3260 5083 c-38 -14 -74 -50 -92 -90 -17 -38 -23 -43 -52 -43 -37 0
-89 -32 -120 -73 -23 -31 -27 -92 -12 -159 8 -37 7 -38 -18 -38 -59 0 -118
-52 -136 -120 -9 -32 2 -80 89 -406 111 -413 122 -448 176 -528 136 -205 400
-307 637 -247 198 51 345 179 420 366 31 76 32 87 33 210 0 128 -1 133 -58
340 -65 233 -82 265 -155 297 -50 22 -100 20 -151 -5 l-31 -15 -11 41 c-74
283 -91 333 -121 364 -41 43 -103 58 -159 39 -41 -14 -42 -14 -67 16 -41 48
-118 71 -172 51z m88 -115 c6 -7 47 -150 92 -318 114 -426 108 -408 136 -426
22 -15 26 -15 49 0 14 9 25 26 25 38 0 11 -34 147 -75 300 -41 153 -75 292
-75 308 0 53 69 65 91 17 5 -12 52 -178 103 -369 l93 -347 -38 -25 c-48 -32
-85 -82 -110 -146 -23 -61 -24 -84 -3 -104 35 -36 84 -11 98 49 13 56 52 102
109 129 30 14 57 32 60 40 3 8 -12 83 -35 167 -32 122 -38 157 -29 176 24 52
99 55 125 5 7 -15 37 -117 66 -226 49 -189 52 -205 48 -300 -3 -92 -7 -108
-40 -179 -102 -213 -333 -328 -558 -276 -135 31 -269 139 -327 264 -48 102
-227 779 -213 804 13 25 44 35 68 22 20 -10 26 -31 123 -394 45 -167 55 -185
105 -173 46 12 42 40 -60 420 -53 198 -96 368 -96 377 0 35 65 55 88 27 5 -7
49 -159 97 -338 48 -179 91 -333 96 -342 20 -37 81 -30 93 10 4 10 -39 187
-94 392 -55 206 -100 380 -100 386 0 35 66 59 88 32z"/>
<path d="M3896 4994 c-32 -31 -20 -59 40 -97 54 -33 75 -80 73 -156 -2 -72 11
-93 55 -89 39 4 56 35 56 104 0 93 -40 172 -113 225 -44 32 -87 37 -111 13z"/>
<path d="M2514 4663 c-14 -16 -42 -61 -61 -101 -68 -140 -54 -315 34 -442 29
-41 46 -56 66 -58 63 -7 74 44 26 114 -48 70 -62 124 -57 217 5 84 35 165 72
196 34 29 7 101 -37 101 -9 0 -28 -12 -43 -27z"/>
<path d="M2652 4548 c-77 -83 -82 -241 -11 -338 26 -34 67 -40 93 -14 22 22
20 42 -10 86 -37 53 -37 117 1 185 28 49 28 52 12 77 -22 32 -56 34 -85 4z"/>
<path d="M5083 3508 c-32 -16 -53 -68 -53 -131 0 -171 -90 -381 -223 -523
-149 -159 -346 -253 -569 -270 -95 -7 -122 -22 -134 -71 -19 -72 42 -116 146
-107 273 24 503 132 681 322 166 175 262 395 276 627 5 96 5 102 -18 128 -27
31 -73 42 -106 25z"/>
</g>
</svg>
