<?xml version="1.0" standalone="no"?>
<!DOCTYPE svg PUBLIC "-//W3C//DTD SVG 20010904//EN"
 "http://www.w3.org/TR/2001/REC-SVG-20010904/DTD/svg10.dtd">
<svg version="1.0" xmlns="http://www.w3.org/2000/svg"
 width="500.000000pt" height="500.000000pt" viewBox="0 0 500.000000 500.000000"
 preserveAspectRatio="xMidYMid meet">
<metadata>
Created by potrace 1.13, written by Peter Selinger 2001-2015
</metadata>
<g transform="translate(0.000000,500.000000) scale(0.100000,-0.100000)"
stroke="none">
<path d="M1434 4300 c-43 -17 -132 -152 -174 -265 -89 -241 -59 -551 75 -759
43 -68 71 -84 111 -65 51 25 52 56 5 134 -88 146 -120 288 -103 456 14 133 53
243 121 342 63 91 66 128 14 156 -25 13 -21 12 -49 1z"/>
<path d="M3630 4297 c-13 -7 -29 -24 -34 -39 -8 -23 -3 -36 42 -101 100 -145
137 -277 130 -464 -6 -138 -33 -232 -98 -340 -47 -76 -48 -106 -8 -136 23 -17
31 -18 55 -8 61 25 150 208 178 365 36 211 -1 422 -105 596 -71 119 -111 151
-160 127z"/>
<path d="M2655 4186 c-99 -45 -141 -162 -95 -265 11 -24 20 -45 20 -47 0 -2
-91 -4 -202 -4 l-203 0 -90 -122 c-110 -148 -117 -162 -101 -208 14 -45 72
-76 114 -63 15 5 60 47 102 96 l74 87 69 0 c37 0 66 -3 64 -7 -2 -5 -33 -57
-70 -118 -62 -104 -67 -119 -107 -282 l-42 -173 -169 0 -169 0 -30 -27 c-57
-51 -56 -134 0 -188 l31 -30 259 -3 c242 -3 259 -2 264 15 3 10 19 72 37 138
17 66 34 124 39 128 4 5 20 -16 35 -45 15 -29 63 -119 107 -200 43 -81 87
-167 97 -191 27 -63 62 -87 127 -87 66 0 108 31 125 93 12 47 16 38 -196 440
l-114 219 60 89 c33 49 62 89 66 89 3 0 37 -27 74 -60 l67 -60 127 0 c120 0
127 1 150 25 27 26 34 80 14 117 -16 30 -70 48 -143 48 l-64 0 -94 106 c-51
58 -94 108 -95 112 -1 4 17 19 42 34 101 61 132 181 69 270 -41 59 -95 88
-164 87 -30 0 -68 -6 -85 -13z"/>
<path d="M1687 4140 c-36 -28 -100 -133 -128 -210 -21 -57 -24 -82 -24 -210 0
-126 3 -153 22 -204 52 -138 113 -203 165 -175 48 25 50 59 9 126 -106 175
-91 406 38 567 36 45 39 78 11 106 -25 25 -60 25 -93 0z"/>
<path d="M3340 4142 c-33 -27 -28 -60 19 -127 55 -79 79 -133 92 -214 17 -111
-9 -247 -66 -333 -38 -58 -41 -83 -11 -112 49 -50 96 -23 150 84 51 102 70
201 63 324 -6 118 -31 198 -86 283 -71 109 -113 134 -161 95z"/>
<path d="M1903 1814 c-42 -20 -57 -35 -77 -77 -45 -88 -29 -205 35 -264 98
-90 254 -59 310 62 39 84 16 202 -50 258 -62 52 -141 60 -218 21z m186 -58
c37 -36 56 -101 46 -163 -5 -36 -16 -56 -45 -85 -34 -34 -43 -38 -90 -38 -67
0 -105 22 -132 78 -16 34 -19 55 -15 95 7 67 21 97 60 125 46 34 135 28 176
-12z"/>
<path d="M2977 1826 c-79 -29 -120 -95 -121 -196 0 -82 27 -139 86 -177 35
-24 52 -28 108 -28 56 0 73 4 108 28 136 89 107 329 -45 375 -51 15 -88 15
-136 -2z m151 -56 c41 -25 62 -73 62 -140 0 -28 -6 -66 -14 -85 -40 -94 -192
-102 -246 -12 -25 40 -27 144 -5 188 35 66 135 90 203 49z"/>
<path d="M1300 1631 l0 -201 25 0 25 0 0 163 c1 194 3 193 75 -17 47 -137 51
-146 75 -146 24 0 29 9 74 138 76 214 75 214 76 25 l0 -163 25 0 25 0 0 201 0
200 -37 -3 -38 -3 -60 -167 c-33 -92 -61 -166 -62 -164 -2 2 -29 77 -61 167
l-58 164 -42 3 -42 3 0 -200z"/>
<path d="M2260 1810 c0 -18 7 -20 70 -20 l70 0 0 -180 0 -180 25 0 25 0 2 178
3 177 68 3 c59 3 67 5 67 22 0 19 -8 20 -165 20 -158 0 -165 -1 -165 -20z"/>
<path d="M2690 1630 l0 -200 25 0 25 0 0 200 0 200 -25 0 -25 0 0 -200z"/>
<path d="M3350 1630 l0 -200 25 0 25 0 0 151 c0 124 2 149 13 140 7 -6 56 -74
107 -151 84 -124 97 -140 122 -140 l28 0 0 200 0 200 -25 0 -25 0 0 -152 0
-153 -20 25 c-11 14 -58 82 -105 153 -78 115 -89 127 -116 127 l-29 0 0 -200z"/>
<path d="M2528 1151 c-93 -30 -133 -90 -133 -201 1 -137 68 -210 194 -210 36
0 111 31 130 54 6 7 17 29 25 48 15 35 15 36 -10 41 -21 4 -28 -1 -41 -28 -20
-41 -60 -65 -113 -65 -88 0 -135 57 -134 165 1 105 46 155 139 155 37 0 52 -5
74 -28 15 -15 30 -33 32 -41 4 -11 12 -12 33 -5 l27 9 -23 34 c-13 19 -34 43
-48 53 -29 21 -112 32 -152 19z"/>
<path d="M3535 1145 c-84 -30 -132 -119 -122 -224 11 -100 79 -168 179 -178
45 -4 61 -1 107 24 77 40 102 90 99 194 -4 94 -29 137 -102 174 -56 28 -102
31 -161 10z m156 -62 c60 -51 76 -141 39 -218 -28 -57 -71 -79 -139 -73 -41 4
-59 12 -83 35 -49 50 -60 160 -21 221 41 65 146 83 204 35z"/>
<path d="M750 951 l0 -201 100 0 c114 0 153 12 193 59 53 64 61 181 16 261
-37 65 -58 74 -191 78 l-118 4 0 -201z m225 135 c42 -28 57 -61 58 -128 1 -73
-21 -128 -59 -148 -14 -8 -57 -14 -97 -14 l-72 -1 -3 145 c-1 79 0 151 3 158
7 20 135 11 170 -12z"/>
<path d="M1200 950 l0 -200 150 0 c143 0 150 1 150 20 0 19 -7 20 -125 20
l-125 0 0 70 0 70 115 0 115 0 0 25 0 25 -115 0 -115 0 0 65 0 65 120 0 c113
0 120 1 120 20 0 19 -7 20 -145 20 l-145 0 0 -200z"/>
<path d="M1580 1130 c0 -16 8 -19 63 -22 l62 -3 3 -177 2 -178 30 0 30 0 0
180 0 180 65 0 c58 0 65 2 65 20 0 19 -7 20 -160 20 -152 0 -160 -1 -160 -20z"/>
<path d="M2000 950 l0 -200 150 0 c143 0 150 1 150 20 0 19 -7 20 -125 20
l-125 0 0 70 0 70 115 0 115 0 0 25 0 25 -115 0 -115 0 0 65 0 65 120 0 c113
0 120 1 120 20 0 19 -7 20 -145 20 l-145 0 0 -200z"/>
<path d="M2820 1130 c0 -18 7 -20 54 -20 91 0 86 11 86 -186 l0 -174 25 0 25
0 2 178 3 177 68 3 c59 3 67 5 67 22 0 19 -8 20 -165 20 -158 0 -165 -1 -165
-20z"/>
<path d="M3250 950 l0 -200 25 0 25 0 0 200 0 200 -25 0 -25 0 0 -200z"/>
<path d="M3910 950 l0 -200 25 0 25 0 0 144 c0 80 3 147 8 149 4 3 52 -62 106
-144 89 -134 102 -149 127 -149 l29 0 0 200 0 200 -25 0 -25 0 0 -152 0 -153
-20 25 c-11 14 -58 82 -105 153 -78 115 -89 127 -116 127 l-29 0 0 -200z"/>
</g>
</svg>
