<?xml version="1.0" encoding="utf-8"?>
<!-- Svg Vector Icons : http://www.onlinewebfonts.com/icon -->
<!DOCTYPE svg PUBLIC "-//W3C//DTD SVG 1.1//EN" "http://www.w3.org/Graphics/SVG/1.1/DTD/svg11.dtd">
<svg version="1.1" xmlns="http://www.w3.org/2000/svg" xmlns:xlink="http://www.w3.org/1999/xlink" x="0px" y="0px" viewBox="0 0 1000 1000" enable-background="new 0 0 1000 1000" xml:space="preserve">
<metadata> Svg Vector Icons : http://www.onlinewebfonts.com/icon </metadata>
<g><g transform="translate(0.000000,512.000000) scale(0.100000,-0.100000)"><path d="M1862.1,4977.3c-371.2-111-671.6-365.5-841.9-711.8C869.1,3963.2,876.7,4057,876.7,2275.6c0-1473.3,1.9-1597.6,34.4-1712.4c118.6-426.7,436.2-784.5,836.1-941.4c266-105.2,130.1-101.4,3252.7-101.4c3122.6,0,2986.7-3.8,3252.7,101.4C8556.9-259.5,8836.2-5.1,8975.9,280c155,315.7,147.3,210.5,147.3,1995.6c0,1781.3,7.7,1687.6-143.5,1989.9c-172.2,352.1-486,612.3-861,715.6c-141.6,40.2-166.5,40.2-3128.3,38.3H2005.6L1862.1,4977.3z M7879.6,4600.3c262.1-38.3,535.7-214.3,677.3-438.1c185.6-290.8,189.4-704.1,9.6-1010.3c-116.7-200.9-363.5-378.8-602.7-436.2c-185.6-42.1-5742-42.1-5927.5,0c-239.2,57.4-486,235.3-602.7,436.2c-179.9,306.1-176,719.4,9.6,1010.3c137.8,216.2,417.1,401.8,658.2,436.2C2265.8,4621.4,7713.1,4623.3,7879.6,4600.3z M1630.6,2411.5c47.8-24.9,153.1-67,231.5-91.8l143.5-44H5000h2994.4l143.5,44c185.6,59.3,292.7,114.8,447.7,231.5l126.3,95.7v-884c0-512.8-7.7-935.6-19.1-1008.3c-57.4-350.1-325.3-660.1-665.9-765.3C7906.4-49.1,7843.2-49.1,5000-49.1c-2843.2,0-2906.4,0-3026.9,38.3c-340.6,105.2-608.4,415.2-665.8,765.3c-11.5,72.7-19.1,495.6-19.1,1008.3v884l126.3-95.7C1483.3,2499.5,1580.9,2436.4,1630.6,2411.5z"/><path d="M2837.9,3748.9V3261h200.9h200.9v487.9v487.9h-200.9h-200.9V3748.9z"/><path d="M3832.9,3748.9V3261h191.3h191.3v487.9v487.9h-191.3h-191.3V3748.9z"/><path d="M4808.7,3748.9V3261H5000h191.3v487.9v487.9H5000h-191.3V3748.9z"/><path d="M5784.5,3748.9V3261h191.3h191.3v487.9v487.9h-191.3h-191.3V3748.9z"/><path d="M6760.3,3748.9V3261h200.9h200.9v487.9v487.9h-200.9h-200.9V3748.9z"/><path d="M3243.6-2764.1c5.7-2215.6-13.4-2010.9,187.5-2010.9c195.2,0,179.9-99.5,195.2,1251.3c7.7,642.9,7.7,1511.5,1.9,1930.5l-11.5,759.6h-189.4h-187.5L3243.6-2764.1z"/><path d="M6371.9-1593.1c-5.7-419-5.7-1287.7,1.9-1930.5c15.3-1350.8,0-1251.3,195.2-1251.3c200.9,0,181.8-204.7,187.5,2010.9l3.8,1930.6h-187.5h-189.4L6371.9-1593.1z"/></g></g>
</svg>