<svg xmlns="http://www.w3.org/2000/svg" xmlns:xlink="http://www.w3.org/1999/xlink" version="1.1" viewBox="0 0 96 120" x="0px" y="0px"><path d="M55.968 96h-40c-10.392 0-16-9.272-16-18 0-1.1 0.896-2 2-2h36c1.104 0 2 0.9 2 2 0 6.804 8.224 14 16 14 1.1 0 2 0.9 2 2s-0.896 2-2 2zM4.088 80c0.74 6.132 4.848 12 11.88 12h28.2c-4.212-3.012-7.324-7.408-8.044-12h-32.036z" /><path d="M94.032 20h-18.064c-1.1 0-2-0.9-2-2s0.9-2 2-2h15.936c-0.744-6.132-4.844-12-11.876-12h-48.060c-1.104 0-2-0.9-2-2s0.896-2 2-2h48.064c10.4 0 16 9.272 16 18 0 1.1-0.896 2-2 2z" fill="#000000"/><path d="M55.968 96c-1.1 0-2-0.9-2-2s0.9-2 2-2c7.772 0 16-7.196 16-14v-74c0-1.1 0.9-2 2-2s2 0.9 2 2v74c0 9.084-9.904 18-20 18z" fill="#000000"/><path d="M21.968 78c-1.104 0-2-0.9-2-2v-64c0-1.1 0.896-2 2-2s2 0.9 2 2v64c0 1.1-0.896 2-2 2z" fill="#000000"/><path d="M21.968 14c-1.104 0-2-0.9-2-2 0-6.616 5.384-12 12-12 1.104 0 2 0.9 2 2s-0.896 2-2 2c-4.412 0-8 3.584-8 8 0 1.1-0.896 2-2 2z" fill="#000000"/><path d="M63.968 28h-32c-1.104 0-2-0.9-2-2s0.896-2 2-2h32c1.1 0 2 0.9 2 2s-0.896 2-2 2z" fill="#000000"/><path d="M63.968 40h-32c-1.104 0-2-0.9-2-2s0.896-2 2-2h32c1.1 0 2 0.9 2 2s-0.896 2-2 2z" fill="#000000"/><path d="M63.968 52h-32c-1.104 0-2-0.9-2-2s0.896-2 2-2h32c1.1 0 2 0.9 2 2s-0.896 2-2 2z" fill="#000000"/><text x="0" y="111" fill="#000000" font-size="5px" font-weight="bold" font-family="'Helvetica Neue', Helvetica, Arial-Unicode, Arial, Sans-serif">Created by iconsmind.com</text><text x="0" y="116" fill="#000000" font-size="5px" font-weight="bold" font-family="'Helvetica Neue', Helvetica, Arial-Unicode, Arial, Sans-serif">from the Noun Project</text></svg>