<svg version="1.1" id="Layer_1" xmlns="http://www.w3.org/2000/svg" xmlns:xlink="http://www.w3.org/1999/xlink" x="0px" y="0px"
	 width="24px" height="24px" viewBox="0 0 24 24" enable-background="new 0 0 24 24" xml:space="preserve">
<path d="M5.027,22.921H1v-4.027h2.301c0.953,0,1.726,0.773,1.726,1.726V22.921z M3.589,16.018c2.383,0,4.314,1.931,4.314,4.314
	L7.894,20.62H6.74l0.013-0.288c0-1.747-1.417-3.164-3.164-3.164l-0.288,0.013v-1.154L3.589,16.018z M15.094,1.06
	c1.112,0,2.014,0.901,2.014,2.014c0,1.112-0.901,2.013-2.014,2.013s-2.013-0.901-2.013-2.013C13.081,1.961,13.982,1.06,15.094,1.06z
	 M11.211,21.897l0.986-4.64c0.022-0.107,0.199-0.637,0.32-0.781l2.997-3.571l-0.85-3.939l-0.712,1.527
	c-0.208,0.407-0.352,0.577-0.556,0.663l-2.824,1.199c-0.366,0.155-0.788-0.016-0.943-0.381c-0.155-0.366,0.015-0.788,0.381-0.943
	l2.625-1.115l0.014-0.032l1.583-3.394c0.144-0.828,0.962-1.259,1.941-1.259c0.537,0,1.293,0.375,1.337,0.397l3.905,2.085
	c0.239,0.128,0.413,0.716,0.421,0.764l0.593,3.077c0.075,0.39-0.18,0.767-0.57,0.842c-0.39,0.075-0.767-0.18-0.842-0.57
	l-0.579-3.003l-2.161-1.154c0.571,2.479,0.944,4.227,0.971,4.415l0.593,4.685l3.019,4.666c0.259,0.4,0.146,0.935-0.254,1.194
	c-0.399,0.26-0.934,0.146-1.193-0.253l-2.894-4.456c-0.083-0.128-0.36-0.713-0.387-0.91l-0.455-3.235l-0.834,0.231l-2.942,3.507
	l-0.016,0.104l-0.986,4.641c-0.1,0.465-0.557,0.763-1.023,0.665C11.41,22.822,11.112,22.363,11.211,21.897z M3.876,13.141
	c3.813,0,6.903,3.091,6.903,6.903l-0.023,0.575H9.601l0.028-0.575c0-3.178-2.576-5.753-5.753-5.753L3.301,14.32v-1.155L3.876,13.141
	z M3.876,11.415l-0.575,0.019v-1.153l0.575-0.017c1.601,0,3.111,0.384,4.445,1.066c-0.084,0.203-0.131,0.426-0.131,0.659
	c0,0.232,0.046,0.453,0.129,0.655C7.022,11.864,5.501,11.415,3.876,11.415z M12.414,15.27l-0.785,0.98
	c-0.472-0.962-1.117-1.824-1.896-2.544l0.185,0.01c0.408,0,0.782-0.142,1.078-0.378C11.542,13.919,12.02,14.568,12.414,15.27z"/>
</svg>
