<svg xmlns="http://www.w3.org/2000/svg" xmlns:xlink="http://www.w3.org/1999/xlink" version="1.1" x="0px" y="0px" viewBox="0 0 512 512" enable-background="new 0 0 512 512" xml:space="preserve"><g><path d="M321.5,247.9V67.5C321.5,31.4,292.1,2,256,2s-65.5,29.4-65.5,65.5v180.4c-45.6,24.3-73.7,70.9-73.7,122.8   c0,76.8,62.5,139.3,139.3,139.3c76.8,0,139.3-62.5,139.3-139.3C395.3,318.8,367.2,272.3,321.5,247.9z M256,493.6   c-67.8,0-122.9-55.1-122.9-122.9c0-84.5,73.7-112.6,73.7-112.6V67.5c0-27.1,22.1-49.2,49.2-49.2c27.1,0,49.2,22.1,49.2,49.2v190.5   c0,0,73.7,28.2,73.7,112.6C378.9,438.5,323.8,493.6,256,493.6z"/><path d="M280.6,284V141.3c0-13.6-11-24.6-24.6-24.6s-24.6,11-24.6,24.6V284c-38.4,10.9-65.5,46.3-65.5,86.7   c0,49.7,40.4,90.1,90.1,90.1c49.7,0,90.1-40.4,90.1-90.1C346.1,330.3,318.9,294.8,280.6,284z M256,444.5   c-40.7,0-73.7-33.1-73.7-73.7c0-66.6,65.5-73.6,65.5-73.6V141.3c0-4.5,3.7-8.2,8.2-8.2c4.5,0,8.2,3.7,8.2,8.2v155.8   c0,0,65.5,11.4,65.5,73.6C329.7,411.4,296.7,444.5,256,444.5z"/><rect x="337.9" y="59.4" width="41" height="16.4"/><rect x="337.9" y="100.3" width="24.6" height="16.4"/><rect x="337.9" y="141.3" width="41" height="16.4"/><rect x="337.9" y="182.3" width="24.6" height="16.4"/><rect x="337.9" y="223.2" width="41" height="16.4"/></g></svg>