<svg id="icon" xmlns="http://www.w3.org/2000/svg" xmlns:xlink="http://www.w3.org/1999/xlink" version="1.1" viewBox="0 0 512 512" enable-background="new 0 0 512 512" >
    <g style="fill: rgb(255, 255, 255);">
        <g style="fill: rgb(255, 255, 255);">
            <path d="m328.7,345.4c-8.9-6.9-21.8-5.2-28.6,3.7l-24.3,31.5c-6.9,8.9-5.6,22.3 3.7,28.6 13.6,9.2 24.6,1.5 28.6-3.7l24.3-31.5c6.9-8.9 5.3-21.7-3.7-28.6z" style="fill: rgb(255, 255, 255);"></path>
            <path d="m455,345.4c-8.9-6.9-21.8-5.2-28.6,3.7l-24.3,31.5c-6.9,8.9-5.6,22.3 3.7,28.6 13.6,9.2 24.6,1.5 28.6-3.7l24.3-31.5c6.9-8.9 5.2-21.7-3.7-28.6z" style="fill: rgb(255, 255, 255);"></path>
            <path d="m376.4,432.9c-8.9-6.9-21.8-5.2-28.6,3.7l-24.3,31.5c-6.9,8.9-5.6,22.3 3.7,28.6 13.6,9.2 24.6,1.5 28.6-3.7l24.3-31.5c6.9-8.9 5.3-21.7-3.7-28.6z" style="fill: rgb(255, 255, 255);"></path>
            <path d="m437.6,121.6c-7.8-62.9-65-110.6-135.4-110.6-40.9,0-78.7,16.5-104.2,44.5-18.3-17-43.6-27.1-70.3-27.1-54.5,0-98.9,40.7-98.9,90.7 0,10.3 2,20.6 5.7,30.3-15.2,20-23.5,43.8-23.5,68.2 0,62.6 52.9,114.1 119.8,118.8l-13.1,26c-2.7,5.4-2.9,11.7-0.5,17.3 2.4,5.6 7.1,9.8 12.9,11.5l37.4,11.2-48,65.5c-6.7,9.1-4.7,21.9 4.4,28.5 3.6,2.7 17.2,9.4 28.5-4.4l65.1-88.8c3.9-5.4 5-12.3 2.9-18.6-2.1-6.3-7.1-11.2-13.5-13.1l-41.8-12.5 11.2-22.3h199.1c69.2,0 125.6-51.7 125.6-115.2 0-41.5-24.5-79.6-63.4-99.9zm-62.2,177.7h-234.5c-49.1,0-89.1-36.7-89.1-81.7 0-19.5 7.7-38.4 21.6-53.2 5.4-5.8 6.5-14 2.7-20.8-4.3-7.7-6.5-15.9-6.5-24.4 0-29.4 26.1-53.3 58.1-53.3 22.3,0 42.9,12 52.5,30.6 3.3,6.5 10.4,10.6 18.2,10.7 7.6,0.1 15-3.9 18.5-10.3 16.4-29.9 49.1-48.4 85.4-48.4 52.2,0 94.2,37.6 95.5,85.5 0.2,7.2 4.9,13.7 12.1,16.6 30.6,12.5 50.4,40.4 50.4,71-0.1,42.8-38.1,77.7-84.9,77.7z" style="fill: rgb(255, 255, 255);"></path>
        </g>
    </g>
</svg>