<?xml version="1.0" standalone="no"?>
<!DOCTYPE svg PUBLIC "-//W3C//DTD SVG 20010904//EN"
 "http://www.w3.org/TR/2001/REC-SVG-20010904/DTD/svg10.dtd">
<svg version="1.0" xmlns="http://www.w3.org/2000/svg"
 width="900.000000pt" height="900.000000pt" viewBox="0 0 900.000000 900.000000"
 preserveAspectRatio="xMidYMid meet">
<metadata>
Created by potrace 1.10, written by Peter Selinger 2001-2011
</metadata>
<g transform="translate(0.000000,900.000000) scale(0.100000,-0.100000)" stroke="none">
<path d="M4455 7894 c-33 -8 -78 -19 -100 -25 -22 -5 -56 -14 -75 -19 -64 -15
-128 -39 -230 -87 -36 -17 -73 -33 -82 -37 -10 -3 -18 -9 -18 -15 0 -5 -8 -12
-17 -15 -19 -7 -27 -11 -103 -60 -52 -34 -73 -52 -188 -161 -82 -78 -202 -223
-202 -244 0 -6 -4 -11 -8 -11 -4 0 -20 -24 -35 -52 -30 -57 -41 -78 -57 -105
-6 -10 -13 -25 -16 -33 -3 -8 -12 -28 -20 -43 -7 -16 -14 -36 -14 -45 0 -9 -7
-26 -15 -36 -8 -11 -15 -33 -15 -49 0 -15 -5 -38 -12 -50 -7 -12 -15 -47 -20
-77 -4 -30 -12 -75 -17 -100 -13 -59 -13 -323 0 -380 6 -25 14 -70 18 -100 4
-30 12 -65 19 -77 7 -12 12 -35 12 -50 0 -16 7 -38 15 -49 8 -10 15 -29 15
-40 0 -12 7 -27 15 -34 8 -7 15 -23 15 -35 0 -12 7 -28 15 -35 8 -7 15 -20 15
-30 0 -10 7 -23 15 -30 8 -7 15 -18 15 -26 0 -29 150 -232 237 -321 100 -101
265 -226 358 -269 17 -8 37 -18 45 -23 14 -8 38 -19 120 -54 19 -8 52 -22 73
-31 21 -9 49 -16 62 -16 13 0 34 -4 47 -9 13 -5 35 -12 50 -15 26 -6 27 -8 30
-84 3 -71 5 -77 23 -73 38 7 500 13 553 6 40 -5 59 -13 80 -36 36 -39 67 -45
241 -48 79 -1 153 -6 165 -11 28 -10 52 -38 70 -80 17 -42 60 -85 99 -99 16
-6 70 -11 120 -11 178 -1 257 -22 387 -107 41 -26 112 -122 155 -207 30 -60
48 -84 72 -95 24 -12 34 -26 42 -58 16 -62 14 -1587 -2 -1630 -7 -18 -27 -43
-46 -55 -19 -13 -45 -43 -58 -68 -13 -24 -32 -54 -41 -65 -10 -11 -30 -39 -46
-63 -40 -63 -81 -97 -171 -143 -79 -39 -84 -40 -246 -53 -91 -8 -176 -19 -189
-26 -37 -20 -76 -68 -90 -111 -27 -80 35 -74 -769 -76 -543 -2 -722 1 -740 10
-14 7 -31 32 -42 61 -21 57 -61 103 -106 122 -20 9 -69 14 -125 14 -51 1 -140
5 -197 10 -89 8 -115 15 -175 45 -39 19 -85 45 -102 58 -55 41 -147 163 -159
210 -8 29 -67 87 -89 87 -33 0 -36 82 -36 860 0 767 4 860 34 860 25 0 68 55
106 134 42 89 90 141 195 210 95 64 119 69 339 74 241 5 252 9 304 115 41 82
53 87 238 90 128 2 142 4 172 25 62 44 31 51 -258 53 l-215 2 -1 -94 c-1 -52
-2 -98 -3 -104 -1 -6 -90 -10 -245 -10 -218 0 -246 -2 -263 -17 -11 -10 -28
-18 -37 -18 -56 0 -238 -148 -270 -220 -3 -8 -16 -31 -27 -50 -22 -36 -49
-125 -49 -160 0 -20 -12 -20 -537 -21 -498 -1 -574 -1 -580 5 -1 1 2 67 7 146
6 79 8 145 6 147 -2 3 -113 5 -246 5 l-241 1 0 -1173 0 -1173 242 1 c132 0
243 2 245 4 2 3 0 69 -5 149 -5 79 -9 145 -8 145 6 5 93 6 580 5 l537 -1 0
-24 c0 -14 5 -28 10 -31 6 -3 10 -17 10 -30 0 -46 63 -147 139 -223 41 -41 84
-78 95 -83 12 -5 28 -13 36 -17 48 -27 69 -36 100 -43 19 -4 53 -13 75 -19 24
-6 119 -9 235 -8 l195 2 0 -107 0 -107 853 -3 854 -2 -4 110 -3 110 150 -3
c86 -1 167 2 190 8 22 6 56 15 75 19 31 7 52 16 100 43 8 4 25 12 38 18 12 5
22 14 22 20 0 5 5 10 11 10 22 0 135 131 165 192 34 67 54 124 54 151 0 15 49
17 603 19 391 2 606 -1 613 -7 8 -7 8 -49 2 -140 -4 -71 -7 -136 -6 -144 3
-11 45 -14 243 -13 132 1 242 1 245 1 3 1 5 528 5 1171 0 644 -2 1170 -5 1170
-3 1 -113 1 -245 2 l-240 1 0 -49 c1 -27 3 -93 5 -147 3 -80 1 -100 -11 -105
-7 -4 -283 -6 -611 -4 l-598 2 0 35 c0 18 -4 37 -10 40 -5 3 -10 19 -10 34 0
16 -7 34 -15 41 -8 7 -15 20 -15 30 0 10 -7 23 -15 30 -8 7 -15 18 -15 24 0
29 -171 186 -203 186 -8 0 -20 7 -27 15 -7 8 -21 15 -32 15 -10 0 -31 8 -45
18 -23 15 -53 17 -218 17 -104 0 -193 4 -196 8 -3 5 -4 52 -1 106 l4 97 -123
-3 c-68 -2 -193 -4 -276 -6 l-153 -3 0 77 0 77 48 12 c26 6 65 15 87 20 39 8
108 32 143 49 9 4 35 16 57 26 22 9 47 21 55 26 8 5 26 14 39 19 31 14 191
118 212 139 9 9 46 40 82 70 36 29 85 76 109 105 66 77 138 173 138 184 0 6 3
12 8 14 13 6 52 67 52 81 0 8 7 20 15 27 8 7 15 20 15 30 0 10 7 23 15 30 8 7
15 20 15 29 0 10 7 26 15 37 8 10 15 28 15 39 0 11 7 29 15 39 8 11 15 34 15
50 1 17 7 42 15 56 8 14 15 41 15 60 0 19 7 62 15 95 17 71 20 326 4 395 -6
25 -14 70 -18 100 -4 30 -12 65 -19 77 -7 12 -12 32 -12 45 0 13 -7 33 -15 44
-8 10 -15 27 -15 36 0 10 -13 46 -29 80 -16 35 -31 70 -35 78 -3 8 -15 29 -26
45 -11 17 -25 42 -31 58 -6 15 -15 27 -20 27 -5 0 -9 5 -9 11 0 36 -321 379
-355 379 -4 0 -24 12 -44 28 -41 31 -69 49 -91 59 -8 4 -17 10 -20 13 -3 4
-41 24 -85 44 -44 21 -89 42 -100 48 -11 6 -33 15 -50 19 -16 4 -43 12 -60 17
-41 15 -129 38 -195 53 -83 18 -489 20 -565 3z m423 -144 c9 -5 51 -14 92 -19
83 -10 149 -26 197 -47 17 -8 36 -14 42 -14 6 0 19 -4 29 -9 9 -5 53 -27 97
-48 44 -21 86 -44 93 -50 7 -7 18 -13 23 -13 11 0 112 -75 163 -120 93 -83
235 -247 259 -300 4 -8 18 -33 30 -55 45 -79 87 -164 87 -177 0 -5 6 -24 14
-41 21 -50 37 -116 47 -197 5 -41 14 -84 20 -96 22 -44 -5 -388 -39 -489 -5
-16 -18 -57 -28 -90 -48 -154 -178 -359 -315 -498 l-97 -99 -858 1 -858 0 -74
73 c-40 40 -94 101 -120 136 -25 34 -49 62 -54 62 -4 0 -8 6 -8 14 0 7 -8 24
-19 37 -15 20 -53 92 -117 222 -8 16 -14 36 -14 45 0 9 -7 30 -15 46 -8 15
-15 39 -15 51 0 13 -5 36 -11 52 -32 81 -39 497 -9 553 4 8 11 37 15 64 4 27
14 61 21 75 8 14 14 34 14 44 0 9 4 25 9 35 6 9 20 40 32 67 12 28 25 57 30
65 4 8 18 33 30 55 11 22 24 42 28 45 4 3 18 23 31 45 35 57 62 88 171 196 53
53 130 118 171 145 40 27 75 52 76 57 2 4 12 7 22 7 10 0 22 5 25 10 4 6 28
20 53 31 26 11 60 27 75 35 16 8 33 14 39 14 5 0 24 6 41 14 54 23 139 44 207
51 36 4 74 11 85 16 29 11 262 11 283 -1z m557 -2432 c33 -6 62 -12 64 -14 18
-16 -145 -109 -254 -144 -154 -50 -250 -114 -291 -191 -8 -16 -27 -31 -46 -37
-45 -13 -347 -9 -374 6 -11 6 -34 28 -49 49 -63 83 -146 141 -225 158 -19 4
-76 27 -127 51 -50 24 -96 44 -100 44 -13 0 -68 59 -61 65 17 17 196 23 768
23 396 0 658 -4 695 -10z m-3695 -968 c41 -21 60 -60 60 -126 0 -31 37 -91 78
-127 49 -44 74 -46 558 -47 l462 0 7 -37 c4 -21 7 -353 6 -737 -1 -768 2 -737
-62 -750 -17 -3 -226 -6 -464 -6 -488 0 -478 2 -542 -75 -32 -39 -39 -55 -44
-107 -6 -55 -10 -66 -40 -91 -33 -27 -38 -28 -121 -25 -53 2 -92 8 -100 16 -7
7 -15 40 -19 75 -4 34 -7 492 -7 1017 -1 1121 -12 1022 108 1031 41 3 76 6 78
7 1 1 20 -7 42 -18z m6209 -1 c22 -10 34 -24 41 -49 6 -22 10 -415 10 -1030
l0 -995 -25 -28 c-24 -26 -31 -27 -115 -27 -69 0 -92 4 -105 17 -23 22 -35 57
-35 99 0 48 -21 84 -75 132 -43 37 -50 40 -128 46 -45 4 -275 7 -512 7 -236 0
-445 3 -463 6 -18 3 -37 14 -43 24 -7 13 -10 264 -11 727 -1 641 1 711 16 740
l17 32 382 2 c595 3 609 3 654 12 31 6 59 23 98 60 54 49 57 53 66 120 10 71
27 102 64 116 30 11 128 5 164 -11z"/>
<path d="M4621 6654 c-82 -36 -139 -107 -171 -214 -15 -47 -90 -128 -343 -366
-158 -149 -176 -208 -90 -296 45 -46 85 -56 139 -33 60 25 134 75 184 125 113
113 255 237 293 256 23 12 64 25 92 29 27 4 68 16 91 27 56 26 124 93 131 129
3 16 10 32 14 35 10 6 12 82 3 137 -8 45 -69 118 -133 159 -38 24 -55 28 -110
27 -37 0 -81 -7 -100 -15z m215 -101 c37 -35 74 -107 74 -144 0 -19 -25 -73
-52 -111 -40 -57 -151 -86 -203 -52 -24 16 -26 15 -104 -63 -92 -91 -158 -152
-225 -208 -26 -22 -78 -70 -116 -107 -38 -37 -80 -70 -93 -73 -34 -9 -76 11
-87 41 -12 31 4 94 23 94 7 0 35 22 63 48 28 26 93 85 144 132 51 47 110 102
132 123 22 20 43 37 47 37 3 0 27 20 53 45 47 43 48 45 42 89 -9 59 9 101 60
148 40 37 42 38 121 38 80 0 82 -1 121 -37z"/>
<path d="M4142 4530 c-44 -19 -120 -105 -132 -151 -25 -91 5 -176 83 -243 41
-34 55 -40 106 -44 75 -5 118 9 174 59 111 97 97 260 -31 352 -37 27 -53 32
-110 34 -37 2 -77 -2 -90 -7z m171 -86 c48 -36 62 -66 62 -129 0 -67 -20 -103
-76 -137 -34 -21 -122 -24 -145 -5 -20 16 -55 51 -71 71 -19 23 -16 112 4 144
28 43 56 70 83 75 43 9 119 -1 143 -19z"/>
<path d="M5249 4520 c-72 -38 -139 -138 -139 -207 0 -51 33 -114 85 -161 72
-66 149 -80 231 -43 50 23 121 103 135 154 26 95 -42 219 -143 261 -50 21
-125 19 -169 -4z m195 -90 c72 -66 67 -173 -10 -236 -77 -63 -179 -41 -233 52
-28 47 -27 96 3 142 45 70 71 83 149 77 46 -4 64 -11 91 -35z"/>
<path d="M4158 2482 c-55 -20 -90 -50 -129 -111 -51 -80 -34 -182 44 -263 45
-47 62 -55 124 -64 67 -8 115 8 171 60 74 68 101 162 68 241 -25 60 -93 123
-149 140 -61 18 -69 18 -129 -3z m176 -104 c39 -41 41 -46 41 -108 0 -67 -3
-75 -55 -125 -22 -22 -34 -25 -94 -25 l-70 0 -43 46 c-41 43 -43 48 -43 105 0
58 1 61 46 104 45 44 47 45 111 45 65 0 67 -1 107 -42z"/>
<path d="M5275 2482 c-56 -21 -102 -57 -130 -103 -20 -31 -25 -52 -25 -107 0
-58 4 -75 28 -113 32 -49 81 -90 129 -107 44 -15 142 1 186 31 79 52 120 168
91 255 -38 113 -176 184 -279 144z m165 -95 c48 -43 65 -102 48 -159 -7 -25
-27 -57 -48 -75 -32 -30 -40 -33 -102 -33 -38 0 -68 4 -68 9 0 5 -9 13 -20 16
-29 9 -70 78 -70 118 0 45 35 115 65 129 14 6 25 15 25 20 0 4 30 8 68 8 62 0
70 -3 102 -33z"/>
</g>
</svg>
