<?xml version="1.0" standalone="no"?>
<!DOCTYPE svg PUBLIC "-//W3C//DTD SVG 20010904//EN"
 "http://www.w3.org/TR/2001/REC-SVG-20010904/DTD/svg10.dtd">
<svg version="1.0" xmlns="http://www.w3.org/2000/svg"
 width="130.000000pt" height="130.000000pt" viewBox="0 0 130.000000 130.000000"
 preserveAspectRatio="xMidYMid meet">
<metadata>
Created by potrace 1.10, written by Peter Selinger 2001-2011
</metadata>
<g transform="translate(0.000000,130.000000) scale(0.100000,-0.100000)"
stroke="none">
<path d="M497 846 c-72 -30 -136 -82 -188 -152 -39 -53 -103 -107 -139 -119
-15 -5 -17 -18 -17 -99 1 -103 -8 -126 -47 -119 -18 4 -22 10 -18 29 3 18 11
24 30 24 35 0 24 7 -18 12 l-35 3 1 -44 1 -44 42 -1 c33 -1 41 2 41 17 0 9 4
17 8 17 24 0 107 -69 156 -130 98 -121 195 -170 336 -170 141 0 238 49 336
170 49 61 132 130 156 130 4 0 8 -8 8 -17 0 -15 8 -18 42 -17 l41 1 0 44 0 44
-34 -3 c-42 -5 -52 -12 -16 -12 22 0 27 -5 27 -25 0 -20 -5 -25 -25 -25 -34 0
-42 26 -39 125 l3 81 -45 24 c-25 13 -62 44 -82 69 -73 89 -144 153 -200 179
-49 23 -73 27 -162 30 -92 2 -112 -1 -163 -22z m269 -13 c65 -22 117 -55 162
-104 20 -22 54 -58 74 -80 28 -30 39 -52 43 -87 9 -65 16 -77 11 -20 l-3 47
24 -16 c33 -22 43 -52 43 -123 0 -51 -3 -61 -22 -71 -13 -6 -72 -62 -133 -124
-139 -142 -177 -159 -330 -153 -86 3 -108 8 -159 33 -58 29 -167 134 -207 200
-11 17 -21 29 -24 27 -3 -1 -19 5 -35 13 -29 15 -30 17 -30 94 0 73 2 80 25
95 34 22 35 21 36 -26 l1 -43 8 46 c9 51 35 109 50 109 5 0 22 18 36 40 35 52
119 116 185 140 68 24 178 26 245 3z"/>
<path d="M543 778 c-86 -32 -145 -83 -184 -163 -37 -76 -47 -144 -30 -212 43
-170 168 -265 340 -260 86 3 164 40 222 105 63 71 83 123 83 217 1 71 -3 88
-32 147 -76 154 -242 223 -399 166z m187 -14 c141 -42 223 -153 222 -300 -1
-116 -69 -220 -176 -270 -72 -33 -180 -33 -252 0 -233 108 -235 443 -4 553 75
35 132 40 210 17z"/>
<path d="M574 675 c-4 -11 -12 -24 -18 -28 -7 -5 -5 -7 4 -4 8 2 20 -3 26 -11
17 -23 24 0 9 33 -12 28 -13 28 -21 10z"/>
<path d="M640 660 c0 -16 5 -30 10 -30 6 0 10 14 10 30 0 17 -4 30 -10 30 -5
0 -10 -13 -10 -30z"/>
<path d="M702 660 c-11 -30 3 -56 14 -26 3 8 11 14 17 12 7 -1 9 -1 5 1 -5 3
-8 11 -8 18 0 27 -18 24 -28 -5z"/>
<path d="M510 645 c0 -14 33 -54 41 -49 10 6 -19 54 -32 54 -5 0 -9 -2 -9 -5z"/>
<path d="M756 625 c-11 -16 -12 -25 -5 -25 12 0 38 29 39 43 0 16 -18 6 -34
-18z"/>
<path d="M440 607 c-24 -12 -50 -34 -58 -47 l-16 -25 24 22 c14 12 45 33 70
47 56 32 39 34 -20 3z"/>
<path d="M772 579 c-81 -44 -91 -52 -77 -63 10 -7 16 -21 13 -32 -2 -15 -13
-20 -47 -21 -60 -4 -76 6 -55 35 8 12 24 22 34 22 10 0 22 5 25 10 13 21 -37
9 -60 -15 -28 -27 -29 -33 -15 -70 20 -51 100 -52 120 -1 5 13 39 54 75 91
l67 67 40 -32 c33 -27 38 -29 28 -11 -6 12 -22 27 -36 33 -14 7 -23 17 -20 25
3 7 4 13 3 13 -1 0 -44 -23 -95 -51z m-28 -54 c-4 -8 -7 -15 -9 -15 -2 0 -5 7
-9 15 -3 9 0 15 9 15 9 0 12 -6 9 -15z m-69 -85 c-3 -5 -17 -10 -31 -10 -13 0
-24 5 -24 10 0 6 14 10 31 10 17 0 28 -4 24 -10z"/>
<path d="M460 594 c0 -11 45 -42 53 -37 11 7 -22 43 -40 43 -7 0 -13 -3 -13
-6z"/>
<path d="M430 531 c0 -12 48 -27 57 -17 9 8 2 13 -30 21 -17 5 -27 3 -27 -4z"/>
<path d="M828 533 c-21 -5 -24 -23 -4 -23 22 0 46 11 46 21 0 9 -13 10 -42 2z"/>
<path d="M501 343 c0 -27 1 -27 9 -5 7 16 18 22 40 22 25 0 30 -4 30 -25 0
-22 -4 -25 -40 -25 -33 0 -40 -3 -40 -20 0 -17 7 -20 45 -20 l45 0 0 50 0 50
-45 0 c-43 0 -45 -1 -44 -27z"/>
<path d="M601 343 c0 -27 0 -28 10 -5 12 32 62 28 67 -5 3 -21 -1 -23 -37 -23
-34 0 -41 -3 -41 -20 0 -17 7 -20 45 -20 l45 0 0 50 0 50 -45 0 c-43 0 -45 -1
-44 -27z"/>
<path d="M702 323 l3 -48 43 -3 42 -3 0 50 0 51 -46 0 -45 0 3 -47z m76 10 c3
-20 -1 -23 -32 -23 -28 0 -36 4 -36 18 0 26 10 33 40 30 17 -2 26 -10 28 -25z"/>
<path d="M241 404 c0 -11 3 -14 6 -6 3 7 2 16 -1 19 -3 4 -6 -2 -5 -13z"/>
<path d="M68 558 c-2 -23 -1 -60 3 -82 6 -37 7 -38 8 -9 1 24 6 33 24 36 18 4
17 5 -7 6 -21 1 -27 5 -22 17 3 9 6 26 6 39 0 20 6 24 38 28 l37 4 -41 1 -42
2 -4 -42z"/>
<path d="M1183 593 c31 -4 37 -8 37 -28 0 -13 3 -30 6 -39 5 -12 -1 -16 -22
-17 -24 -1 -25 -2 -6 -6 17 -3 22 -12 23 -36 1 -29 2 -28 8 9 4 22 5 59 3 82
l-4 42 -42 -2 -41 -1 38 -4z"/>
</g>
</svg>
