<svg xmlns="http://www.w3.org/2000/svg" xmlns:xlink="http://www.w3.org/1999/xlink" version="1.1" id="icon" x="0px" y="0px" width="55.105px" height="55.105px" viewBox="0 0 55.105 55.105" style="fill: rgb(255, 255, 255);" xml:space="preserve">
<g style="fill: rgb(255, 255, 255);">
	<g style="fill: rgb(255, 255, 255);">
		<path d="M52.106,2.957c-1.657,0-3,1.343-3,3V29.21l-5.653,3.397c-0.451,0.271-1.52,0.263-1.969-0.021l-4.172-2.621    c-2.329-1.466-5.778-1.58-8.198-0.275l-5.518,2.971c-0.481,0.26-1.589,0.206-2.044-0.098l-3.713-2.481    c-2.319-1.55-5.78-1.707-8.231-0.373L6,31.674V5.957c0-1.657-1.343-3-3-3c-1.657,0-3,1.343-3,3v40.191c0,3.31,2.691,6,6,6h43.105    c3.309,0,6-2.69,6-6V5.957C55.106,4.3,53.764,2.957,52.106,2.957z M49.106,46.15H6v-7.645l6.478-3.529    c0.477-0.26,1.575-0.211,2.027,0.093l3.713,2.481c2.315,1.547,5.774,1.711,8.225,0.391l5.518-2.971    c0.504-0.271,1.674-0.232,2.161,0.073l4.171,2.622c2.377,1.493,5.85,1.529,8.252,0.083l2.562-1.539L49.106,46.15L49.106,46.15z" style="fill: rgb(255, 255, 255);"></path>
		<path d="M29.686,6.723h-4.264c-1.177,0-2.132,0.954-2.132,2.132v6.396h-3.152c-1.177,0-1.457,0.675-0.624,1.508l6.533,6.533    c0.833,0.833,2.182,0.833,3.014,0l6.533-6.533c0.834-0.833,0.554-1.508-0.623-1.508h-3.152V8.855    C31.817,7.677,30.862,6.723,29.686,6.723z" style="fill: rgb(255, 255, 255);"></path>
	</g>
</g>
<g style="fill: rgb(255, 255, 255);">
</g>
<g style="fill: rgb(255, 255, 255);">
</g>
<g style="fill: rgb(255, 255, 255);">
</g>
<g style="fill: rgb(255, 255, 255);">
</g>
<g style="fill: rgb(255, 255, 255);">
</g>
<g style="fill: rgb(255, 255, 255);">
</g>
<g style="fill: rgb(255, 255, 255);">
</g>
<g style="fill: rgb(255, 255, 255);">
</g>
<g style="fill: rgb(255, 255, 255);">
</g>
<g style="fill: rgb(255, 255, 255);">
</g>
<g style="fill: rgb(255, 255, 255);">
</g>
<g style="fill: rgb(255, 255, 255);">
</g>
<g style="fill: rgb(255, 255, 255);">
</g>
<g style="fill: rgb(255, 255, 255);">
</g>
<g style="fill: rgb(255, 255, 255);">
</g>
</svg>