<?xml version="1.0" standalone="no"?>
<!DOCTYPE svg PUBLIC "-//W3C//DTD SVG 20010904//EN"
 "http://www.w3.org/TR/2001/REC-SVG-20010904/DTD/svg10.dtd">
<svg version="1.0" xmlns="http://www.w3.org/2000/svg"
 width="384.000000pt" height="384.000000pt" viewBox="0 0 384.000000 384.000000"
 preserveAspectRatio="xMidYMid meet">
<metadata>
Created by potrace 1.10, written by Peter Selinger 2001-2011
</metadata>
<g transform="translate(0.000000,384.000000) scale(0.100000,-0.100000)"
stroke="none">
<path d="M1107 3423 c-27 -9 -64 -33 -85 -53 -35 -35 -72 -114 -72 -151 0 -46
76 -169 105 -169 7 0 18 -7 25 -15 9 -10 32 -15 75 -15 43 0 66 5 75 15 7 8
21 15 31 15 10 0 21 5 24 10 13 21 75 38 148 41 42 2 79 0 84 -4 4 -4 7 -49 8
-98 l0 -91 169 1 c93 0 173 4 178 9 6 6 5 39 -1 82 -14 104 -10 108 86 102 58
-3 94 -12 140 -34 35 -16 65 -33 68 -39 4 -5 31 -9 61 -9 69 0 121 26 165 81
31 40 33 47 33 118 0 61 -4 83 -22 111 -27 45 -66 74 -124 94 -42 14 -50 14
-95 -2 -26 -10 -55 -22 -63 -27 -52 -33 -87 -43 -153 -45 -104 -3 -107 -3
-117 26 -20 53 -46 63 -155 64 -93 0 -102 -2 -127 -25 -14 -13 -29 -34 -33
-45 -7 -23 -6 -23 -105 -20 -45 1 -84 7 -97 16 -12 8 -28 14 -36 14 -7 0 -18
5 -24 11 -9 9 -115 52 -118 48 0 0 -22 -7 -48 -16z m698 -137 c119 -59 118
-50 12 -154 -122 -121 -133 -122 -228 -18 -38 40 -82 79 -99 86 -40 17 -38 27
10 40 21 6 42 15 46 21 13 21 109 59 149 59 26 0 65 -12 110 -34z m-520 -16
c37 -16 75 -30 86 -30 36 0 19 -17 -43 -43 -123 -51 -157 -60 -189 -46 -38 15
-52 43 -45 85 14 70 83 82 191 34z m996 12 c17 -14 22 -28 21 -56 -2 -47 -7
-55 -49 -73 -32 -13 -41 -12 -92 4 -52 16 -141 60 -141 69 0 5 77 44 119 59
53 20 115 18 142 -3z"/>
<path d="M1462 2761 c-55 -27 -62 -46 -62 -170 l0 -113 -351 3 -352 4 0 -314
0 -313 834 1 c471 1 840 -3 848 -8 10 -6 13 -37 12 -125 l-2 -116 316 0 c245
0 315 3 316 13 0 6 0 73 -1 147 -2 201 -43 332 -147 465 -52 66 -161 154 -223
181 -8 3 -28 12 -45 19 -88 37 -103 39 -355 45 l-255 5 4 106 3 106 -36 37
c-20 20 -42 36 -49 36 -232 7 -432 3 -455 -9z m373 -113 c18 -8 30 -26 42 -67
21 -70 60 -129 110 -167 l38 -28 205 -7 c220 -7 262 -14 355 -61 192 -97 320
-290 320 -481 0 -102 -8 -107 -190 -107 -79 0 -155 4 -169 10 -18 6 -34 27
-51 65 -32 74 -110 150 -162 158 -21 4 -357 7 -746 7 -770 0 -759 -1 -773 55
-3 13 -4 87 -2 164 4 199 -18 185 301 191 167 3 259 9 273 17 11 6 39 32 61
56 32 34 44 58 53 103 20 95 35 104 185 104 73 0 135 -5 150 -12z"/>
<path d="M2676 1448 c-62 -125 -106 -195 -212 -340 -40 -53 -87 -127 -105
-165 -31 -64 -33 -74 -33 -178 0 -135 19 -183 104 -265 171 -166 427 -158 594
17 43 46 99 182 100 243 0 44 -37 169 -59 200 -5 8 -19 31 -29 50 -11 19 -52
78 -91 130 -39 52 -74 102 -78 110 -4 8 -16 29 -26 45 -23 36 -87 163 -95 188
-11 35 -44 19 -70 -35z m71 -220 c11 -13 42 -54 68 -93 26 -38 58 -83 72 -99
13 -15 44 -70 68 -120 57 -117 60 -172 14 -265 -46 -92 -117 -139 -221 -145
-86 -6 -144 8 -204 50 -72 49 -104 110 -104 201 0 39 7 91 17 119 17 49 98
187 138 234 11 14 38 51 59 83 42 62 61 69 93 35z"/>
<path d="M2661 972 c-77 -52 -140 -175 -119 -232 12 -32 74 -107 101 -122 37
-19 88 -27 116 -17 32 12 98 75 117 111 17 33 18 83 3 129 -14 42 -93 127
-136 145 -40 17 -33 19 -82 -14z m113 -124 c41 -82 43 -96 16 -125 -26 -28
-72 -37 -116 -23 -58 19 -64 67 -19 140 12 19 25 45 29 58 5 14 15 22 30 22
19 0 31 -14 60 -72z"/>
</g>
</svg>
