<svg version="1.0" xmlns="http://www.w3.org/2000/svg" viewBox="0 0 5300 5300" xml:space="preserve" xmlns:xlink="http://www.w3.org/1999/xlink">
<g transform="translate(0,5300) scale(1,-1)">
<path d="M2006 5300 c-48 -20 -119 -114 -99 -133 7 -7 18 2 25 21 47 122 263
114 331 -13 20 -37 13 -36 -44 13 -89 74 -199 64 -284 -27 -65 -69 -67 -70
-135 -31 -181 103 -362 -103 -280 -319 17 -44 14 -51 -22 -51 -193 0 -211
-414 -20 -453 58 -11 58 -12 30 -78 -18 -43 -28 -141 -28 -268 l0 -201 -50 0
c-45 0 -50 -8 -50 -82 0 -80 2 -82 60 -74 44 7 62 0 70 -25 15 -47 69 -58 275
-59 173 0 198 9 151 56 -13 13 12 6 54 -16 94 -48 122 -49 197 -10 51 26 56
26 46 0 -10 -25 18 -30 184 -30 263 0 267 4 238 215 -22 161 -23 164 -61 130
-29 -26 -75 -35 -186 -37 -109 -1 -157 -10 -185 -35 -67 -61 -164 -63 -247 -6
-63 43 -90 49 -180 40 -81 -7 -124 -1 -181 29 l-75 40 0 -128 c0 -72 -9 -128
-20 -128 -12 0 -19 84 -19 215 1 179 6 207 25 165 45 -97 191 -129 320 -71 28
12 39 6 47 -25 22 -84 375 -93 396 -10 12 46 59 62 80 28 39 -64 236 -26 280
54 27 50 29 40 30 -157 1 -217 15 -259 85 -259 26 0 36 15 36 56 l0 56 315 -6
c393 -8 365 5 365 -168 l0 -143 63 13 c34 6 76 12 92 12 62 0 22 287 -52 379
-104 130 -68 193 53 91 90 -75 124 -166 124 -328 0 -129 4 -142 40 -142 59 0
59 283 0 404 -47 98 -43 110 16 55 26 -24 44 -31 44 -16 0 47 -214 233 -293
255 -128 36 -767 29 -767 -8 0 -25 47 -30 301 -30 271 0 466 -23 487 -57 5 -7
-171 -10 -390 -6 l-398 7 0 -92 0 -92 311 0 c399 0 491 -47 464 -233 -8 -51
-9 -49 -12 15 -6 139 -35 148 -472 147 l-384 0 1 207 c0 113 -8 213 -19 220
-33 24 -30 124 4 124 16 0 56 26 89 58 115 116 56 402 -83 402 -32 0 -35 13
-25 108 23 225 -138 374 -285 263 -59 -45 -84 -37 -99 28 -26 120 -165 189
-284 141z m-213 -210 c39 -16 79 -25 89 -19 10 6 18 -3 18 -20 0 -39 -58 -39
-109 0 -59 44 -141 35 -212 -25 -61 -51 -63 -52 -40 -9 21 40 119 100 167 102
8 1 47 -12 87 -29z m402 -10 c86 -52 89 -51 -98 -43 l-163 6 58 38 c74 49 122
49 203 -1z m425 -32 l50 -52 -70 42 c-84 50 -155 53 -216 10 -46 -32 -104 -26
-104 11 0 11 12 15 26 10 15 -6 53 4 85 21 76 40 164 24 229 -42z m-870 -117
c-64 -53 -90 -62 -90 -32 0 26 82 81 119 81 20 0 9 -18 -29 -49z m508 20 c358
-127 461 -637 178 -880 -253 -216 -807 -96 -816 178 -1 23 -7 104 -13 180 -30
377 303 644 651 522z m227 1 c36 -27 48 -72 18 -72 -9 0 -37 23 -63 50 -51 54
-19 70 45 22z m-925 -242 c-14 -16 -41 -30 -60 -30 -19 0 -59 -20 -90 -43
l-55 -44 24 45 c23 44 122 100 178 101 23 1 23 -5 3 -29z m1199 -28 c27 -19
52 -46 57 -60 5 -14 -11 -9 -34 11 -24 20 -67 42 -96 47 -29 6 -57 22 -62 37
-11 35 65 15 135 -35z m-871 -974 c22 -56 13 -62 -57 -40 -68 21 -69 22 -25
46 58 32 67 32 82 -6z m486 6 c44 -24 43 -25 -21 -45 -62 -20 -65 -18 -57 25
10 52 17 54 78 20z"/>
<path d="M1930 4837 c-144 -80 -282 -363 -194 -400 8 -4 40 -49 69 -100 145
-249 540 -212 608 56 6 26 19 42 29 36 45 -28 17 185 -35 265 -95 146 -339
219 -477 143z m298 -45 c106 -44 245 -271 167 -272 -14 -1 -51 -37 -82 -82
-105 -147 -269 -177 -376 -69 -175 178 -182 196 -115 304 79 128 259 181 406
119z"/>
<path d="M1992 4615 c-47 -43 -60 -79 -54 -160 7 -115 205 -159 281 -62 122
155 -80 354 -227 222z m197 -26 c37 -38 41 -131 7 -165 -33 -33 -76 -30 -76 6
0 17 18 30 40 30 22 0 40 10 40 22 0 12 -18 26 -40 32 -22 6 -40 23 -40 37 0
45 -42 55 -53 13 -6 -22 -28 -45 -49 -50 -50 -13 -49 -54 2 -54 22 0 40 -13
40 -30 0 -35 -10 -37 -61 -9 -48 25 -51 112 -6 162 41 46 153 49 196 6z"/>
<path d="M1758 4153 c162 -174 503 -176 660 -6 27 29 39 53 27 53 -13 0 -28
-8 -34 -18 -52 -84 -402 -97 -596 -20 l-105 41 48 -50z"/>
<path d="M461 3998 c-145 -111 -179 -203 -186 -498 l-5 -250 93 -6 93 -6 -7
146 c-4 80 -8 151 -10 156 -23 78 28 248 91 300 41 34 25 -91 -24 -187 -35
-69 -34 -70 71 -85 82 -11 83 -11 83 50 0 112 55 142 261 142 100 0 244 10
320 23 l139 23 0 97 c0 71 8 97 29 97 16 0 33 8 39 17 6 10 -45 17 -113 16
-69 -1 -273 5 -455 15 l-330 17 -89 -67z m44 -103 c-76 -79 -125 -189 -125
-283 0 -89 -33 -111 -50 -34 -27 125 112 382 206 382 23 0 13 -19 -31 -65z
m681 52 c191 -31 -42 -119 -241 -91 -43 7 -62 60 -32 91 17 16 173 17 273 0z"/>
<path d="M613 3525 c-5 -8 -12 -73 -16 -145 l-7 -130 60 0 c36 0 59 10 58 25
-1 14 -3 79 -5 145 -3 114 -50 170 -90 105z"/>
<path d="M3854 3340 c-8 -33 0 -40 45 -40 308 0 820 -274 1054 -564 171 -212
226 -328 306 -648 27 -107 60 -150 60 -78 2 365 -319 874 -712 1131 -290 189
-725 304 -753 199z"/>
<path d="M3219 3313 c-1310 -463 -1485 -2265 -289 -2995 93 -57 170 -107 170
-110 0 -15 -351 20 -362 36 -29 45 -318 5 -318 -44 0 -38 191 -81 370 -82 44
-1 197 -14 340 -29 471 -51 1306 -23 1500 51 47 18 53 16 42 -11 -10 -26 -2
-30 43 -20 30 6 100 15 155 19 156 13 249 65 185 105 -59 37 -260 44 -300 11
-26 -22 -395 -52 -395 -33 0 5 52 35 115 67 293 147 548 409 697 714 115 236
194 608 128 608 -11 0 -21 25 -23 55 -2 30 -9 10 -15 -45 -10 -82 -20 -101
-55 -106 -41 -6 -43 2 -45 194 -4 247 -54 453 -159 653 -43 82 -72 149 -65
149 35 0 181 -271 232 -430 70 -216 97 -166 30 56 -432 1430 -2420 1450 -2923
29 -65 -185 -68 -91 -4 145 107 395 604 849 1037 948 197 46 212 53 182 83
-41 41 -121 36 -273 -18z m631 -233 c-92 -13 -90 -17 20 -30 90 -11 307 -75
407 -121 132 -60 139 -60 91 -6 -105 120 156 -67 312 -223 792 -791 348 -2099
-774 -2281 -495 -80 -1136 262 -1367 731 -299 607 -74 1453 463 1736 65 34 66
34 19 0 -95 -70 -161 -130 -161 -148 0 -10 41 13 91 51 168 129 517 260 729
274 28 2 1 10 -60 17 -86 11 -62 14 110 14 163 0 194 -4 120 -14z m-1390 -747
c-80 -165 -140 -367 -140 -477 0 -36 -9 -79 -20 -96 -53 -81 -15 275 45 420
51 124 171 324 188 312 2 -1 -31 -73 -73 -159z m51 -1193 c534 -1042 1917
-1007 2490 63 116 217 148 223 79 14 -445 -1332 -2422 -1221 -2730 153 l-13
59 38 -49 c22 -28 83 -135 136 -240z m668 -833 c305 -125 711 -128 1081 -9
220 70 248 69 84 -5 -372 -166 -843 -168 -1216 -3 -173 77 -130 91 51 17z"/>
<path d="M3580 2935 c-111 -75 -150 -145 -150 -265 0 -315 385 -424 578 -164
136 184 -28 474 -268 474 -65 0 -115 -14 -160 -45z m140 -25 c0 -27 9 -50 20
-50 11 0 20 23 20 52 0 47 6 51 55 39 250 -62 291 -415 61 -533 -263 -135
-532 160 -375 413 43 70 44 70 72 30 30 -42 67 -55 67 -22 0 10 -14 32 -32 50
-28 28 -27 33 15 50 76 30 97 24 97 -29z"/>
<path d="M3860 2870 c-14 -16 -18 -30 -9 -30 9 0 -9 -27 -41 -60 -32 -33 -69
-60 -82 -60 -31 0 -43 -36 -32 -94 9 -49 84 -67 84 -20 0 15 14 44 31 65 18
22 25 26 17 9 -14 -26 -11 -26 18 -3 18 15 30 34 25 42 -5 8 19 14 53 13 34
-1 66 9 71 23 6 18 -9 21 -52 13 -60 -12 -60 -12 -43 60 17 76 2 92 -40 42z"/>
<path d="M3505 2627 c-43 -17 -29 -64 15 -53 22 6 40 23 40 38 0 29 -12 32
-55 15z"/>
<path d="M4480 2720 c-24 -16 -21 -19 15 -20 53 0 59 -30 10 -50 -31 -12 -30
-16 11 -32 53 -20 41 -58 -18 -58 -22 0 -35 -9 -28 -20 18 -30 82 -24 109 9
14 17 17 40 8 55 -9 14 -13 43 -10 64 10 57 -44 86 -97 52z"/>
<path d="M4140 2426 c0 -58 9 -106 20 -106 11 0 20 30 20 66 0 63 29 114 64
114 9 0 16 -40 16 -90 0 -49 9 -90 20 -90 11 0 20 30 20 66 0 63 29 114 64
114 9 0 16 -40 16 -90 0 -67 8 -90 30 -90 21 0 30 22 30 75 -1 118 -21 134
-169 136 l-131 1 0 -106z"/>
<path d="M2630 2241 c-14 -44 -11 -1051 4 -1106 8 -32 48 -35 502 -34 599 2
601 44 3 69 -442 17 -497 48 -473 265 5 47 2 85 -7 85 -9 0 6 50 34 111 37 81
55 162 64 294 19 272 -8 262 763 278 336 7 651 22 700 34 141 33 158 25 60
-27 l-90 -49 142 12 c265 23 348 -32 348 -230 0 -74 14 -183 31 -244 135 -468
104 -509 -412 -539 -597 -34 -604 -55 -19 -52 l530 2 0 580 0 580 -1084 5
c-1064 5 -1083 5 -1096 -34z"/>
<path d="M2944 1865 l6 -215 780 0 780 0 6 215 5 215 -791 0 -791 0 5 -215z
m236 -15 l0 -170 -100 0 -100 0 0 159 c0 157 0 158 55 167 153 23 145 32 145
-156z m260 0 l0 -170 -100 0 -100 0 0 170 0 170 100 0 100 0 0 -170z m260 -1
l0 -162 -100 2 -100 1 0 160 0 160 100 0 100 0 0 -161z m260 0 l0 -171 -105 6
-105 6 -6 138 c-8 186 -4 192 115 192 l101 0 0 -171z m260 6 l0 -165 -110 0
-110 0 0 165 0 165 110 0 110 0 0 -165z m250 -5 l0 -160 -105 -5 -105 -6 0
172 0 171 105 -6 105 -6 0 -160z"/>
<path d="M3008 1952 c-22 -58 2 -198 38 -220 75 -45 145 112 93 209 -24 45
-115 53 -131 11z m102 -92 c0 -69 -8 -91 -34 -96 -41 -8 -67 71 -47 147 22 91
81 54 81 -51z"/>
<path d="M3284 1956 c-51 -51 -12 -236 49 -236 73 0 114 126 75 228 -14 38
-90 42 -124 8z m97 -37 c27 -52 5 -159 -33 -159 -42 0 -71 90 -48 150 23 61
51 64 81 9z"/>
<path d="M3560 1960 c0 -11 9 -20 19 -20 10 0 22 -47 26 -105 l8 -105 3 125
c3 99 -2 125 -26 125 -16 0 -30 -9 -30 -20z"/>
<path d="M3800 1975 c0 -14 -6 -45 -13 -70 -10 -38 -4 -45 39 -45 51 0 75 -30
59 -75 -4 -14 -30 -25 -57 -25 -26 0 -48 -9 -48 -20 0 -28 66 -25 108 6 48 35
35 118 -23 144 -60 26 -57 70 5 70 28 0 50 9 50 20 0 11 -27 20 -60 20 -35 0
-60 -11 -60 -25z"/>
<path d="M4040 1980 c0 -11 27 -20 61 -20 l60 0 -31 -60 c-48 -93 -71 -160
-54 -160 35 0 128 225 100 243 -37 23 -136 21 -136 -3z"/>
<path d="M4312 1970 c-65 -65 -16 -166 69 -144 61 16 38 -30 -32 -64 -34 -17
-48 -32 -33 -37 42 -14 118 49 130 109 22 115 -65 204 -134 136z m98 -70 c0
-31 -13 -52 -35 -56 -40 -8 -65 40 -47 87 19 50 82 26 82 -31z"/>
<path d="M2700 1432 c0 -115 4 -129 45 -140 69 -19 591 -71 722 -72 100 0 114
-4 94 -28 -20 -25 7 -28 191 -22 118 4 219 16 226 27 7 10 129 29 272 41 143
13 307 32 365 44 l105 21 0 128 0 129 -1010 0 -1010 0 0 -128z m1780 -2 l0
-68 -725 1 c-804 1 -795 0 -795 67 0 65 -27 63 785 65 l735 2 0 -67z m72 21
c12 -51 -2 -91 -33 -91 -11 0 -19 32 -19 70 0 80 33 94 52 21z m-575 -202 c3
-3 -13 -16 -38 -29 -35 -19 -41 -19 -28 1 11 19 0 22 -47 13 -35 -7 -138 -7
-229 1 -120 9 -149 17 -105 26 55 11 431 1 447 -12z"/>
<path d="M4341 987 c-1 -82 16 -97 71 -62 12 8 28 8 36 1 36 -37 74 -21 68 29
-7 58 -56 88 -56 34 0 -33 -3 -33 -40 1 -22 20 -41 28 -41 18 -1 -10 -10 0
-19 22 -13 31 -17 22 -19 -43z"/>
<path d="M3595 999 c-158 -84 -189 -310 -59 -440 125 -124 264 -130 393 -17
261 229 -25 620 -334 457z m218 -31 c8 -19 -8 -52 -40 -84 l-53 -53 0 73 c0
40 -11 77 -25 83 -14 5 5 11 41 11 42 1 70 -9 77 -30z m-4 -198 c12 -22 46
-65 77 -96 57 -55 63 -94 17 -110 -13 -4 -37 24 -53 62 -28 69 -109 88 -110
27 -1 -16 -5 -16 -16 1 -12 19 -35 17 -103 -6 -94 -32 -136 -16 -113 43 10 26
27 31 82 20 54 -10 73 -6 80 18 6 17 14 45 20 62 14 44 94 29 119 -21z"/>
<path d="M4208 1011 c-16 -41 -2 -96 26 -106 31 -10 69 63 54 104 -15 39 -66
41 -80 2z"/>
<path d="M499 3257 c-13 -23 -26 -119 -30 -212 -5 -112 -17 -181 -36 -202 -44
-49 -133 -261 -133 -315 0 -54 -67 -81 -150 -60 -72 18 -64 45 72 262 120 191
181 311 207 410 7 28 -26 -22 -74 -110 -49 -88 -120 -209 -159 -270 -142 -222
-162 -276 -136 -369 12 -45 18 -126 12 -179 -36 -307 468 -446 743 -205 206
181 194 376 -50 765 -153 244 -244 436 -232 485 15 55 -5 55 -34 0z m50 -581
c27 -125 50 -176 122 -269 49 -63 89 -133 89 -157 0 -90 -240 -136 -427 -82
-140 41 -146 77 -33 199 102 112 132 185 162 404 28 196 24 200 87 -95z m-99
-608 c77 -6 177 -3 223 8 111 25 155 -2 90 -56 -125 -105 -423 -106 -562 -1
-63 48 -37 89 46 73 35 -7 126 -18 203 -24z"/>
</g>
</svg>
