<svg xmlns="http://www.w3.org/2000/svg" viewBox="0 0 26 26" enable-background="new 0 0 26 26">
    <path d="M 6.0625 3.34375 C 5.5265625 3.3150391 5 3.79375 5 4.40625 L 5 6.3125 C 5 6.7125 5.2875 7.0875 5.6875 7.1875 L 14.46875 9.9375 L 5.6875 12.6875 C 5.2875 12.8875 5 13.2875 5 13.6875 L 5 15.59375 C 5 16.29375 5.7125 16.79375 6.3125 16.59375 L 20.3125 12.1875 C 20.7125 12.0875 21 11.6875 21 11.1875 L 21 10.6875 L 21 8.8125 C 21 8.3125 20.7125 7.9125 20.3125 7.8125 L 6.3125 3.40625 C 6.2375 3.38125 6.1390625 3.3478516 6.0625 3.34375 z M 6 19 C 5.4 19 5 19.4 5 20 L 5 22 C 5 22.6 5.4 23 6 23 L 20 23 C 20.6 23 21 22.6 21 22 L 21 20 C 21 19.4 20.6 19 20 19 L 6 19 z"></path>
</svg>