<svg data-name="Слой 1" xmlns="http://www.w3.org/2000/svg" viewBox="0 0 40 40"><title>Keyboard</title><rect x="1.5" y="15.5" width="38" height="20" fill="#b0c1d4"></rect><path d="M39,16V35H2V16H39m1-1H1V36H40V15Z" fill="#788b9c"></path><path d="M21,15C21,4.54,34,11.46,34,1" fill="none" stroke="#66798f" stroke-miterlimit="10" stroke-width="2"></path><rect x="13" y="30" width="15" height="3" fill="#fff"></rect><rect x="29" y="30" width="3" height="3" fill="#fff"></rect><rect x="33" y="30" width="3" height="3" fill="#fff"></rect><rect x="9" y="30" width="3" height="3" fill="#fff"></rect><rect x="5" y="30" width="3" height="3" fill="#fff"></rect><rect x="29" y="26" width="7" height="3" fill="#fff"></rect><rect x="25" y="26" width="3" height="3" fill="#fff"></rect><rect x="21" y="26" width="3" height="3" fill="#fff"></rect><rect x="17" y="26" width="3" height="3" fill="#fff"></rect><rect x="13" y="26" width="3" height="3" fill="#fff"></rect><rect x="5" y="26" width="7" height="3" fill="#fff"></rect><rect x="5" y="22" width="4" height="3" fill="#fff"></rect><rect x="14" y="22" width="3" height="3" fill="#fff"></rect><rect x="18" y="22" width="3" height="3" fill="#fff"></rect><rect x="22" y="22" width="3" height="3" fill="#fff"></rect><rect x="26" y="22" width="3" height="3" fill="#fff"></rect><rect x="30" y="22" width="6" height="3" fill="#fff"></rect><rect x="33" y="18" width="3" height="3" fill="#fff"></rect><rect x="29" y="18" width="3" height="3" fill="#fff"></rect><rect x="25" y="18" width="3" height="3" fill="#fff"></rect><rect x="21" y="18" width="3" height="3" fill="#fff"></rect><rect x="17" y="18" width="3" height="3" fill="#fff"></rect><rect x="13" y="18" width="3" height="3" fill="#fff"></rect><rect x="9" y="18" width="3" height="3" fill="#fff"></rect><rect x="5" y="18" width="3" height="3" fill="#fff"></rect><rect x="10" y="22" width="3" height="3" fill="#fff"></rect></svg>