<svg xmlns="http://www.w3.org/2000/svg" viewBox="0 0 26 26" enable-background="new 0 0 26 26">
    <path d="M 19.9375 3.34375 C 19.860937 3.3478516 19.7625 3.38125 19.6875 3.40625 L 5.6875 7.8125 C 5.2875 7.9125 5 8.2875 5 8.6875 L 5 10.59375 L 5 11.3125 C 5 11.7125 5.2875 12.0875 5.6875 12.1875 L 19.6875 16.59375 C 20.2875 16.79375 21 16.29375 21 15.59375 L 21 13.6875 C 21 13.2875 20.7125 12.8875 20.3125 12.6875 L 11.53125 9.9375 L 20.3125 7.1875 C 20.7125 7.0875 21 6.6875 21 6.1875 L 21 4.40625 C 21 3.79375 20.473438 3.3150391 19.9375 3.34375 z M 6 19 C 5.4 19 5 19.4 5 20 L 5 22 C 5 22.6 5.4 23 6 23 L 20 23 C 20.6 23 21 22.6 21 22 L 21 20 C 21 19.4 20.6 19 20 19 L 6 19 z"></path>
</svg>