<svg xmlns="http://www.w3.org/2000/svg" viewBox="0 0 26 26" enable-background="new 0 0 26 26">
    <path d="M 19.84375 3.625 C 19.764453 3.6386719 19.66875 3.65 19.59375 3.6875 L 5.59375 10.6875 C 5.19375 10.8875 5 11.19375 5 11.59375 L 5 12.59375 L 5 13.40625 L 5 14.40625 C 5 14.80625 5.19375 15.1125 5.59375 15.3125 L 19.59375 22.3125 C 20.19375 22.6125 21 22.10625 21 21.40625 L 21 19.59375 C 21 19.19375 20.70625 18.8875 20.40625 18.6875 L 9.03125 13 L 20.40625 7.3125 C 20.80625 7.1125 21 6.80625 21 6.40625 L 21 4.59375 C 21 3.98125 20.398828 3.5292969 19.84375 3.625 z"></path>
</svg>