<svg xmlns="http://www.w3.org/2000/svg" viewBox="0 0 26 26" enable-background="new 0 0 26 26">
    <path style="text-indent:0;text-align:start;line-height:normal;text-transform:none;block-progression:tb;-inkscape-font-specification:Bitstream Vera Sans" d="M 3.90625 2.96875 A 1.0001 1.0001 0 0 0 3.78125 3 A 1.0001 1.0001 0 0 0 3.28125 4.71875 L 21.28125 22.71875 A 1.016466 1.016466 0 1 0 22.71875 21.28125 L 20.4375 19 L 22 19 C 22.6 19 23 18.6 23 18 L 23 16 C 23 15.4 22.6 15 22 15 L 16.4375 15 L 12.4375 11 L 22 11 C 22.6 11 23 10.6 23 10 L 23 8 C 23 7.4 22.6 7 22 7 L 8.4375 7 L 4.71875 3.28125 A 1.0001 1.0001 0 0 0 3.90625 2.96875 z M 3.1875 7.40625 C 3.0875 7.60625 3 7.8 3 8 L 3 10 C 3 10.6 3.4 11 4 11 L 6.8125 11 L 3.1875 7.40625 z M 4 15 C 3.4 15 3 15.4 3 16 L 3 18 C 3 18.6 3.4 19 4 19 L 14.8125 19 L 10.8125 15 L 4 15 z" color="#000" overflow="visible" enable-background="accumulate" font-family="Bitstream Vera Sans"></path>
</svg>