<svg xmlns="http://www.w3.org/2000/svg" xml:space="preserve" height="100" width="30" version="1.0" viewBox="0 0 30 99.999996"><g transform="matrix(5.564574,0,0,5.564574,-3.932955,-70.239963)"><path d="m2.4092605 30.054405c0.8730502-1.101565 1.6113307-2.390626 2.2148437-3.867187 0.603517-1.476561 0.9052745-3.005857 0.9052734-4.587891 0.0000011-1.394525-0.2255846-2.730461-0.6767578-4.007812-0.5273414-1.482412-1.3417937-2.958973-2.4433593-4.429688h-1.1337891c0.708989 1.218762 1.1777385 2.088878 1.40625 2.610352 0.3574254 0.808603 0.6386752 1.652352 0.84375 2.53125 0.251956 1.09571 0.3779324 2.197271 0.3779297 3.304687 0.0000027 2.818361-0.875973 5.633788-2.6279297 8.446289h1.1337891z"/></g></svg>